<svg xmlns="http://www.w3.org/2000/svg" viewBox="0 0 894 1112" font-family="&#39;Inter&#39;,&#39;IBM Plex Sans&#39;,-apple-system,sans-serif">
<defs>
<marker id="arrow" viewBox="0 0 10 10" refX="8" refY="5" markerWidth="7" markerHeight="7" orient="auto-start-reverse">
<path d="M0,0 L10,5 L0,10 z" fill="#9AA3AE"></path>
</marker>
<filter id="cardshadow" x="-20%" y="-20%" width="140%" height="140%">
<feDropShadow dx="0" dy="1.5" stdDeviation="2.5" flood-color="#1a1a1a" flood-opacity="0.08"></feDropShadow>
</filter>
</defs>
<rect x="0" y="0" width="894" height="1112" fill="#FFFFFF"></rect>
<path d="M 447.0 151.0 L 447.0 229.0" fill="none" stroke="#9AA3AE" stroke-width="1.75" marker-end="url(#arrow)"></path>
<path d="M 447.0 334.0 L 447.0 412.0" fill="none" stroke="#9AA3AE" stroke-width="1.75" marker-end="url(#arrow)"></path>
<path d="M 447.0 517.0 L 447.0 595.0" fill="none" stroke="#9AA3AE" stroke-width="1.75" marker-end="url(#arrow)"></path>
<path d="M 447.0 700.0 L 447.0 778.0" fill="none" stroke="#9AA3AE" stroke-width="1.75" marker-end="url(#arrow)"></path>
<path d="M 447.0 883.0 L 447.0 910.0 Q 447.0 922.0 435.0 922.0 L 183.0 922.0 Q 171.0 922.0 171.0 934.0 L 171.0 961.0" fill="none" stroke="#9AA3AE" stroke-width="1.75" marker-end="url(#arrow)"></path>
<path d="M 447.0 883.0 L 447.0 961.0" fill="none" stroke="#9AA3AE" stroke-width="1.75" marker-end="url(#arrow)"></path>
<path d="M 447.0 883.0 L 447.0 910.0 Q 447.0 922.0 459.0 922.0 L 711.0 922.0 Q 723.0 922.0 723.0 934.0 L 723.0 961.0" fill="none" stroke="#9AA3AE" stroke-width="1.75" marker-end="url(#arrow)"></path>
<g filter="url(#cardshadow)">
<rect x="322.0" y="46.0" width="250" height="105" rx="16" fill="#DBF2E7" stroke="#4FAE83" stroke-width="1.5"></rect>
</g>
<text x="447.0" y="85.6" text-anchor="middle" font-size="15.5" font-weight="600" fill="#1B5E3D">Dispute Intake &amp;</text>
<text x="447.0" y="105.6" text-anchor="middle" font-size="15.5" font-weight="600" fill="#1B5E3D">Classification Agent</text>
<text x="447.0" y="122.2" text-anchor="middle" font-size="12.5" fill="#3D8261">Stage 1 of 5</text>
<g filter="url(#cardshadow)">
<rect x="322.0" y="229.0" width="250" height="105" rx="16" fill="#DBF2E7" stroke="#4FAE83" stroke-width="1.5"></rect>
</g>
<text x="447.0" y="268.6" text-anchor="middle" font-size="15.5" font-weight="600" fill="#1B5E3D">Cross-System Evidence</text>
<text x="447.0" y="288.6" text-anchor="middle" font-size="15.5" font-weight="600" fill="#1B5E3D">Gathering Agent</text>
<text x="447.0" y="305.2" text-anchor="middle" font-size="12.5" fill="#3D8261">Stage 2 of 5</text>
<g filter="url(#cardshadow)">
<rect x="322.0" y="412.0" width="250" height="105" rx="16" fill="#DBF2E7" stroke="#4FAE83" stroke-width="1.5"></rect>
</g>
<text x="447.0" y="451.6" text-anchor="middle" font-size="15.5" font-weight="600" fill="#1B5E3D">Root-Cause Determination</text>
<text x="447.0" y="471.6" text-anchor="middle" font-size="15.5" font-weight="600" fill="#1B5E3D">Agent</text>
<text x="447.0" y="488.2" text-anchor="middle" font-size="12.5" fill="#3D8261">Stage 3 of 5</text>
<g filter="url(#cardshadow)">
<rect x="322.0" y="595.0" width="250" height="105" rx="16" fill="#DBF2E7" stroke="#4FAE83" stroke-width="1.5"></rect>
</g>
<text x="447.0" y="634.6" text-anchor="middle" font-size="15.5" font-weight="600" fill="#1B5E3D">Resolution &amp; Credit</text>
<text x="447.0" y="654.6" text-anchor="middle" font-size="15.5" font-weight="600" fill="#1B5E3D">Calculation Agent</text>
<text x="447.0" y="671.2" text-anchor="middle" font-size="12.5" fill="#3D8261">Stage 4 of 5</text>
<g filter="url(#cardshadow)">
<rect x="322.0" y="778.0" width="250" height="105" rx="16" fill="#DBF2E7" stroke="#4FAE83" stroke-width="1.5"></rect>
</g>
<text x="447.0" y="817.6" text-anchor="middle" font-size="15.5" font-weight="600" fill="#1B5E3D">Customer Communication</text>
<text x="447.0" y="837.6" text-anchor="middle" font-size="15.5" font-weight="600" fill="#1B5E3D">Drafting Agent</text>
<text x="447.0" y="854.2" text-anchor="middle" font-size="12.5" fill="#3D8261">Stage 5 of 5</text>
<g filter="url(#cardshadow)">
<rect x="46.0" y="961.0" width="250" height="105" rx="16" fill="#FBE8CE" stroke="#D89A3F" stroke-width="1.5"></rect>
</g>
<text x="171.0" y="1000.6" text-anchor="middle" font-size="15.5" font-weight="600" fill="#7A4E12">Billing System</text>
<text x="171.0" y="1020.6" text-anchor="middle" font-size="15.5" font-weight="600" fill="#7A4E12">Credit/Adjustment</text>
<text x="171.0" y="1037.2" text-anchor="middle" font-size="12.5" fill="#9C6B22">Action &amp; Execution</text>
<g filter="url(#cardshadow)">
<rect x="322.0" y="961.0" width="250" height="105" rx="16" fill="#FBE8CE" stroke="#D89A3F" stroke-width="1.5"></rect>
</g>
<text x="447.0" y="1000.6" text-anchor="middle" font-size="15.5" font-weight="600" fill="#7A4E12">Customer Notification</text>
<text x="447.0" y="1020.6" text-anchor="middle" font-size="15.5" font-weight="600" fill="#7A4E12">(Email/SMS)</text>
<text x="447.0" y="1037.2" text-anchor="middle" font-size="12.5" fill="#9C6B22">Action &amp; Execution</text>
<g filter="url(#cardshadow)">
<rect x="598.0" y="961.0" width="250" height="105" rx="16" fill="#FBE8CE" stroke="#D89A3F" stroke-width="1.5"></rect>
</g>
<text x="723.0" y="1010.6" text-anchor="middle" font-size="15.5" font-weight="600" fill="#7A4E12">CRM Case Closure</text>
<text x="723.0" y="1027.2" text-anchor="middle" font-size="12.5" fill="#9C6B22">Action &amp; Execution</text>
</svg>