<svg xmlns="http://www.w3.org/2000/svg" viewBox="0 0 1510 2044" font-family="&#39;Inter&#39;,&#39;IBM Plex Sans&#39;,-apple-system,sans-serif">
<defs>
<marker id="arrow" viewBox="0 0 10 10" refX="8" refY="5" markerWidth="7" markerHeight="7" orient="auto-start-reverse">
<path d="M0,0 L10,5 L0,10 z" fill="#9AA3AE"></path>
</marker>
<filter id="cardshadow" x="-20%" y="-20%" width="140%" height="140%">
<feDropShadow dx="0" dy="1.5" stdDeviation="2.5" flood-color="#1a1a1a" flood-opacity="0.08"></feDropShadow>
</filter>
</defs>
<rect x="0" y="0" width="1510" height="2044" fill="#FFFFFF"></rect>
<path d="M 649.0 171.0 L 649.0 249.0" fill="none" stroke="#9AA3AE" stroke-width="1.75" marker-end="url(#arrow)"></path>
<path d="M 925.0 171.0 L 925.0 198.0 Q 925.0 210.0 913.0 210.0 L 661.0 210.0 Q 649.0 210.0 649.0 222.0 L 649.0 249.0" fill="none" stroke="#9AA3AE" stroke-width="1.75" marker-end="url(#arrow)"></path>
<path d="M 1201.0 171.0 L 1201.0 198.0 Q 1201.0 210.0 1189.0 210.0 L 661.0 210.0 Q 649.0 210.0 649.0 222.0 L 649.0 249.0" fill="none" stroke="#9AA3AE" stroke-width="1.75" marker-end="url(#arrow)"></path>
<path d="M 774.0 311.5 L 800.0 311.5" fill="none" stroke="#9AA3AE" stroke-width="1.75" marker-end="url(#arrow)"></path>
<path d="M 774.0 311.5 L 1076.0 311.5" fill="none" stroke="#9AA3AE" stroke-width="1.75" marker-end="url(#arrow)"></path>
<path d="M 925.0 374.0 L 925.0 401.0 Q 925.0 413.0 913.0 413.0 L 661.0 413.0 Q 649.0 413.0 649.0 425.0 L 649.0 452.0" fill="none" stroke="#9AA3AE" stroke-width="1.75" marker-end="url(#arrow)"></path>
<path d="M 1201.0 374.0 L 1201.0 401.0 Q 1201.0 413.0 1189.0 413.0 L 661.0 413.0 Q 649.0 413.0 649.0 425.0 L 649.0 452.0" fill="none" stroke="#9AA3AE" stroke-width="1.75" marker-end="url(#arrow)"></path>
<path d="M 649.0 577.0 L 649.0 604.0 Q 649.0 616.0 637.0 616.0 L 523.0 616.0 Q 511.0 616.0 511.0 628.0 L 511.0 655.0" fill="none" stroke="#9AA3AE" stroke-width="1.75" stroke-dasharray="5 4" marker-end="url(#arrow)" marker-start="url(#arrow)"></path>
<path d="M 925.0 577.0 L 925.0 604.0 Q 925.0 616.0 913.0 616.0 L 799.0 616.0 Q 787.0 616.0 787.0 628.0 L 787.0 655.0" fill="none" stroke="#9AA3AE" stroke-width="1.75" stroke-dasharray="5 4" marker-end="url(#arrow)" marker-start="url(#arrow)"></path>
<path d="M 1201.0 577.0 L 1201.0 604.0 Q 1201.0 616.0 1189.0 616.0 L 1075.0 616.0 Q 1063.0 616.0 1063.0 628.0 L 1063.0 655.0" fill="none" stroke="#9AA3AE" stroke-width="1.75" stroke-dasharray="5 4" marker-end="url(#arrow)" marker-start="url(#arrow)"></path>
<path d="M 649.0 577.0 L 649.0 604.0 Q 649.0 616.0 661.0 616.0 L 1327.0 616.0 Q 1339.0 616.0 1339.0 628.0 L 1339.0 655.0" fill="none" stroke="#9AA3AE" stroke-width="1.75" stroke-dasharray="5 4" marker-end="url(#arrow)" marker-start="url(#arrow)"></path>
<path d="M 649.0 577.0 L 649.0 858.0" fill="none" stroke="#9AA3AE" stroke-width="1.75" marker-end="url(#arrow)"></path>
<path d="M 925.0 577.0 L 925.0 858.0" fill="none" stroke="#9AA3AE" stroke-width="1.75" marker-end="url(#arrow)"></path>
<path d="M 1201.0 577.0 L 1201.0 858.0" fill="none" stroke="#9AA3AE" stroke-width="1.75" marker-end="url(#arrow)"></path>
<path d="M 649.0 983.0 L 649.0 1010.0 Q 649.0 1022.0 661.0 1022.0 L 913.0 1022.0 Q 925.0 1022.0 925.0 1034.0 L 925.0 1061.0" fill="none" stroke="#9AA3AE" stroke-width="1.75" marker-end="url(#arrow)"></path>
<path d="M 925.0 983.0 L 925.0 1061.0" fill="none" stroke="#9AA3AE" stroke-width="1.75" marker-end="url(#arrow)"></path>
<path d="M 1201.0 983.0 L 1201.0 1010.0 Q 1201.0 1022.0 1189.0 1022.0 L 937.0 1022.0 Q 925.0 1022.0 925.0 1034.0 L 925.0 1061.0" fill="none" stroke="#9AA3AE" stroke-width="1.75" marker-end="url(#arrow)"></path>
<path d="M 925.0 1186.0 L 925.0 1213.0 Q 925.0 1225.0 913.0 1225.0 L 523.0 1225.0 Q 511.0 1225.0 511.0 1237.0 L 511.0 1264.0" fill="none" stroke="#9AA3AE" stroke-width="1.75" marker-end="url(#arrow)"></path>
<g><rect x="655.6" y="1214.0" width="124.8" height="20" rx="9" fill="#FFFFFF" stroke="#D8DCE2" stroke-width="1"></rect><text x="718.0" y="1229.0" text-anchor="middle" font-size="10.5" font-weight="600" fill="#51586A">medium confidence</text></g>
<path d="M 925.0 1186.0 L 925.0 1213.0 Q 925.0 1225.0 913.0 1225.0 L 799.0 1225.0 Q 787.0 1225.0 787.0 1237.0 L 787.0 1264.0" fill="none" stroke="#9AA3AE" stroke-width="1.75" marker-end="url(#arrow)"></path>
<g><rect x="800.0" y="1214.0" width="112.0" height="20" rx="9" fill="#FFFFFF" stroke="#D8DCE2" stroke-width="1"></rect><text x="856.0" y="1229.0" text-anchor="middle" font-size="10.5" font-weight="600" fill="#51586A">high confidence</text></g>
<path d="M 925.0 1186.0 L 925.0 1213.0 Q 925.0 1225.0 937.0 1225.0 L 1327.0 1225.0 Q 1339.0 1225.0 1339.0 1237.0 L 1339.0 1264.0" fill="none" stroke="#9AA3AE" stroke-width="1.75" stroke-dasharray="5 4" marker-end="url(#arrow)"></path>
<g><rect x="1079.2" y="1214.0" width="105.6" height="20" rx="9" fill="#FFFFFF" stroke="#D8DCE2" stroke-width="1"></rect><text x="1132.0" y="1229.0" text-anchor="middle" font-size="10.5" font-weight="600" fill="#51586A">low confidence</text></g>
<path d="M 912.0 1326.5 L 938.0 1326.5" fill="none" stroke="#9AA3AE" stroke-width="1.75" marker-end="url(#arrow)"></path>
<path d="M 511.0 1389.0 L 511.0 1416.0 Q 511.0 1428.0 523.0 1428.0 L 637.0 1428.0 Q 649.0 1428.0 649.0 1440.0 L 649.0 1467.0" fill="none" stroke="#9AA3AE" stroke-width="1.75" stroke-dasharray="5 4" marker-end="url(#arrow)"></path>
<path d="M 787.0 1389.0 L 787.0 1416.0 Q 787.0 1428.0 799.0 1428.0 L 913.0 1428.0 Q 925.0 1428.0 925.0 1440.0 L 925.0 1467.0" fill="none" stroke="#9AA3AE" stroke-width="1.75" stroke-dasharray="5 4" marker-end="url(#arrow)"></path>
<path d="M 1063.0 1389.0 L 1063.0 1416.0 Q 1063.0 1428.0 1075.0 1428.0 L 1189.0 1428.0 Q 1201.0 1428.0 1201.0 1440.0 L 1201.0 1467.0" fill="none" stroke="#9AA3AE" stroke-width="1.75" stroke-dasharray="5 4" marker-end="url(#arrow)"></path>
<path d="M 649.0 1592.0 L 649.0 1670.0" fill="none" stroke="#9AA3AE" stroke-width="1.75" stroke-dasharray="5 4" marker-end="url(#arrow)"></path>
<path d="M 925.0 1592.0 L 925.0 1670.0" fill="none" stroke="#9AA3AE" stroke-width="1.75" stroke-dasharray="5 4" marker-end="url(#arrow)"></path>
<path d="M 1201.0 1592.0 L 1201.0 1670.0" fill="none" stroke="#9AA3AE" stroke-width="1.75" stroke-dasharray="5 4" marker-end="url(#arrow)"></path>
<path d="M 649.0 1795.0 L 649.0 1873.0" fill="none" stroke="#9AA3AE" stroke-width="1.75" stroke-dasharray="5 4" marker-end="url(#arrow)"></path>
<path d="M 774.0 1935.5 L 800.0 1935.5" fill="none" stroke="#9AA3AE" stroke-width="1.75" marker-end="url(#arrow)"></path>
<path d="M 1050.0 1935.5 L 1076.0 1935.5" fill="none" stroke="#9AA3AE" stroke-width="1.75" marker-end="url(#arrow)"></path>
<path d="M 1201.0 1998.0 L 1201.0 1314.5 Q 1201.0 1326.5 1213.0 1326.5 L 1327.0 1326.5 Q 1339.0 1326.5 1339.0 1338.5 L 1339.0 655.0" fill="none" stroke="#9AA3AE" stroke-width="1.75" stroke-dasharray="5 4" marker-end="url(#arrow)"></path>
<path d="M 1201.0 1998.0 L 1201.0 1314.5 Q 1201.0 1326.5 1189.0 1326.5 L 799.0 1326.5 Q 787.0 1326.5 787.0 1338.5 L 787.0 655.0" fill="none" stroke="#9AA3AE" stroke-width="1.75" stroke-dasharray="5 4" marker-end="url(#arrow)"></path>
<line x1="300" y1="46.0" x2="300" y2="1998.0" stroke="#D64545" stroke-width="2.5"></line>
<line x1="19.0" y1="52.0" x2="19.0" y2="1992.0" stroke="#1A1A1A" stroke-width="1.5"></line>
<polygon points="14.0,61.0 24.0,61.0 19.0,52.0" fill="#1A1A1A"></polygon>
<polygon points="14.0,1983.0 24.0,1983.0 19.0,1992.0" fill="#1A1A1A"></polygon>
<text x="19.0" y="1022.0" text-anchor="middle" font-size="11" font-weight="700" fill="#1A1A1A" letter-spacing="0.5" transform="rotate(-90 19.0 1022.0)">SYSTEM ORCHESTRATION &amp; KNOWLEDGE FLOW</text>
<rect x="40" y="82.5" width="42" height="52" fill="#FFFFFF" stroke="#1A1A1A" stroke-width="2"></rect>
<text x="61.0" y="114.5" text-anchor="middle" font-size="17" font-weight="700" fill="#1A1A1A">L1</text>
<rect x="82" y="82.5" width="196" height="52" fill="#FFFFFF" stroke="#1A1A1A" stroke-width="2"></rect>
<text x="180.0" y="102.5" text-anchor="middle" font-size="11.5" font-weight="700" fill="#1A1A1A">Foundational Data &amp;</text>
<text x="180.0" y="117.5" text-anchor="middle" font-size="11.5" font-weight="700" fill="#1A1A1A">Infrastructure</text>
<line x1="278" y1="108.5" x2="300" y2="108.5" stroke="#D64545" stroke-width="1.5" stroke-dasharray="3 3"></line>
<circle cx="300" cy="108.5" r="4" fill="#D64545"></circle>
<rect x="40" y="285.5" width="42" height="52" fill="#FFFFFF" stroke="#1A1A1A" stroke-width="2"></rect>
<text x="61.0" y="317.5" text-anchor="middle" font-size="17" font-weight="700" fill="#1A1A1A">L2</text>
<rect x="82" y="285.5" width="196" height="52" fill="#FFFFFF" stroke="#1A1A1A" stroke-width="2"></rect>
<text x="180.0" y="305.5" text-anchor="middle" font-size="11.5" font-weight="700" fill="#1A1A1A">Agent Intelligence &amp;</text>
<text x="180.0" y="320.5" text-anchor="middle" font-size="11.5" font-weight="700" fill="#1A1A1A">Models</text>
<line x1="278" y1="311.5" x2="300" y2="311.5" stroke="#D64545" stroke-width="1.5" stroke-dasharray="3 3"></line>
<circle cx="300" cy="311.5" r="4" fill="#D64545"></circle>
<rect x="40" y="488.0" width="42" height="53" fill="#FFFFFF" stroke="#1A1A1A" stroke-width="2"></rect>
<text x="61.0" y="520.5" text-anchor="middle" font-size="17" font-weight="700" fill="#1A1A1A">L3</text>
<rect x="82" y="488.0" width="196" height="53" fill="#FFFFFF" stroke="#1A1A1A" stroke-width="2"></rect>
<text x="180.0" y="508.0" text-anchor="middle" font-size="11.5" font-weight="700" fill="#1A1A1A">Agentic Core</text>
<text x="180.0" y="526.0" text-anchor="middle" font-size="10" fill="#5A6270">(Orchestration &amp; Reasoning)</text>
<line x1="278" y1="514.5" x2="300" y2="514.5" stroke="#D64545" stroke-width="1.5" stroke-dasharray="3 3"></line>
<circle cx="300" cy="514.5" r="4" fill="#D64545"></circle>
<rect x="40" y="886.5" width="42" height="68" fill="#FFFFFF" stroke="#1A1A1A" stroke-width="2"></rect>
<text x="61.0" y="926.5" text-anchor="middle" font-size="17" font-weight="700" fill="#1A1A1A">L4</text>
<rect x="82" y="886.5" width="196" height="68" fill="#FFFFFF" stroke="#1A1A1A" stroke-width="2"></rect>
<text x="180.0" y="906.5" text-anchor="middle" font-size="11.5" font-weight="700" fill="#1A1A1A">Decisions Engineering &amp;</text>
<text x="180.0" y="921.5" text-anchor="middle" font-size="11.5" font-weight="700" fill="#1A1A1A">SECI Framework</text>
<text x="180.0" y="939.5" text-anchor="middle" font-size="10" fill="#5A6270">(Governance &amp; Logic)</text>
<line x1="278" y1="920.5" x2="300" y2="920.5" stroke="#D64545" stroke-width="1.5" stroke-dasharray="3 3"></line>
<circle cx="300" cy="920.5" r="4" fill="#D64545"></circle>
<rect x="40" y="1300.0" width="42" height="53" fill="#FFFFFF" stroke="#1A1A1A" stroke-width="2"></rect>
<text x="61.0" y="1332.5" text-anchor="middle" font-size="17" font-weight="700" fill="#1A1A1A">L5</text>
<rect x="82" y="1300.0" width="196" height="53" fill="#FFFFFF" stroke="#1A1A1A" stroke-width="2"></rect>
<text x="180.0" y="1320.0" text-anchor="middle" font-size="11.5" font-weight="700" fill="#1A1A1A">Execution &amp; Interaction</text>
<text x="180.0" y="1338.0" text-anchor="middle" font-size="10" fill="#5A6270">(Action Layer)</text>
<line x1="278" y1="1326.5" x2="300" y2="1326.5" stroke="#D64545" stroke-width="1.5" stroke-dasharray="3 3"></line>
<circle cx="300" cy="1326.5" r="4" fill="#D64545"></circle>
<rect x="40" y="1503.0" width="42" height="53" fill="#FFFFFF" stroke="#1A1A1A" stroke-width="2"></rect>
<text x="61.0" y="1535.5" text-anchor="middle" font-size="17" font-weight="700" fill="#1A1A1A">L6</text>
<rect x="82" y="1503.0" width="196" height="53" fill="#FFFFFF" stroke="#1A1A1A" stroke-width="2"></rect>
<text x="180.0" y="1523.0" text-anchor="middle" font-size="11.5" font-weight="700" fill="#1A1A1A">End-to-End Observability</text>
<text x="180.0" y="1541.0" text-anchor="middle" font-size="10" fill="#5A6270">(The Nervous System)</text>
<line x1="278" y1="1529.5" x2="300" y2="1529.5" stroke="#D64545" stroke-width="1.5" stroke-dasharray="3 3"></line>
<circle cx="300" cy="1529.5" r="4" fill="#D64545"></circle>
<rect x="40" y="1706.0" width="42" height="53" fill="#FFFFFF" stroke="#1A1A1A" stroke-width="2"></rect>
<text x="61.0" y="1738.5" text-anchor="middle" font-size="17" font-weight="700" fill="#1A1A1A">L7</text>
<rect x="82" y="1706.0" width="196" height="53" fill="#FFFFFF" stroke="#1A1A1A" stroke-width="2"></rect>
<text x="180.0" y="1726.0" text-anchor="middle" font-size="11.5" font-weight="700" fill="#1A1A1A">Leadership Dashboard Layer</text>
<text x="180.0" y="1744.0" text-anchor="middle" font-size="10" fill="#5A6270">(Accountability &amp; Outcomes)</text>
<line x1="278" y1="1732.5" x2="300" y2="1732.5" stroke="#D64545" stroke-width="1.5" stroke-dasharray="3 3"></line>
<circle cx="300" cy="1732.5" r="4" fill="#D64545"></circle>
<rect x="40" y="1901.5" width="42" height="68" fill="#FFFFFF" stroke="#1A1A1A" stroke-width="2"></rect>
<text x="61.0" y="1941.5" text-anchor="middle" font-size="17" font-weight="700" fill="#1A1A1A">L8</text>
<rect x="82" y="1901.5" width="196" height="68" fill="#FFFFFF" stroke="#1A1A1A" stroke-width="2"></rect>
<text x="180.0" y="1921.5" text-anchor="middle" font-size="11.5" font-weight="700" fill="#1A1A1A">Feedback &amp; Reinforcement</text>
<text x="180.0" y="1936.5" text-anchor="middle" font-size="11.5" font-weight="700" fill="#1A1A1A">Loops</text>
<text x="180.0" y="1954.5" text-anchor="middle" font-size="10" fill="#5A6270">(Self-Healing)</text>
<line x1="278" y1="1935.5" x2="300" y2="1935.5" stroke="#D64545" stroke-width="1.5" stroke-dasharray="3 3"></line>
<circle cx="300" cy="1935.5" r="4" fill="#D64545"></circle>
<g filter="url(#cardshadow)">
<rect x="524.0" y="46.0" width="250" height="125" rx="16" fill="#F2EEE3" stroke="#C7BC9E" stroke-width="1.5"></rect>
</g>
<text x="649.0" y="95.6" text-anchor="middle" font-size="15.5" font-weight="600" fill="#4A4432">Billing Payment Status</text>
<text x="649.0" y="115.6" text-anchor="middle" font-size="15.5" font-weight="600" fill="#4A4432">Feed</text>
<text x="649.0" y="132.2" text-anchor="middle" font-size="12.5" fill="#8C8365">Internal Data Store</text>
<g filter="url(#cardshadow)">
<rect x="800.0" y="46.0" width="250" height="125" rx="16" fill="#F2EEE3" stroke="#C7BC9E" stroke-width="1.5"></rect>
</g>
<text x="925.0" y="95.6" text-anchor="middle" font-size="15.5" font-weight="600" fill="#4A4432">Customer Value (CLV)</text>
<text x="925.0" y="115.6" text-anchor="middle" font-size="15.5" font-weight="600" fill="#4A4432">Data</text>
<text x="925.0" y="132.2" text-anchor="middle" font-size="12.5" fill="#8C8365">Internal Data Store</text>
<g filter="url(#cardshadow)">
<rect x="1076.0" y="46.0" width="250" height="125" rx="16" fill="#F2EEE3" stroke="#C7BC9E" stroke-width="1.5"></rect>
</g>
<text x="1201.0" y="105.6" text-anchor="middle" font-size="15.5" font-weight="600" fill="#4A4432">Hardship Program Rules</text>
<text x="1201.0" y="122.2" text-anchor="middle" font-size="12.5" fill="#8C8365">Internal Data Store</text>
<g filter="url(#cardshadow)">
<rect x="524.0" y="249.0" width="250" height="125" rx="16" fill="#DBF2E7" stroke="#4FAE83" stroke-width="1.5"></rect>
</g>
<text x="649.0" y="308.6" text-anchor="middle" font-size="15.5" font-weight="600" fill="#1B5E3D">AI Gateway</text>
<text x="649.0" y="325.2" text-anchor="middle" font-size="12.5" fill="#3D8261">L2 · The Brain</text>
<g filter="url(#cardshadow)">
<rect x="800.0" y="249.0" width="250" height="125" rx="16" fill="#DBF2E7" stroke="#4FAE83" stroke-width="1.5"></rect>
</g>
<text x="925.0" y="298.6" text-anchor="middle" font-size="15.5" font-weight="600" fill="#1B5E3D">LLM Reasoning Core</text>
<text x="925.0" y="318.6" text-anchor="middle" font-size="15.5" font-weight="600" fill="#1B5E3D">(Claude)</text>
<text x="925.0" y="335.2" text-anchor="middle" font-size="12.5" fill="#3D8261">L2 · The Brain</text>
<g filter="url(#cardshadow)">
<rect x="1076.0" y="249.0" width="250" height="125" rx="16" fill="#DBF2E7" stroke="#4FAE83" stroke-width="1.5"></rect>
</g>
<text x="1201.0" y="298.6" text-anchor="middle" font-size="15.5" font-weight="600" fill="#1B5E3D">Collections Risk</text>
<text x="1201.0" y="318.6" text-anchor="middle" font-size="15.5" font-weight="600" fill="#1B5E3D">Knowledge Graph</text>
<text x="1201.0" y="335.2" text-anchor="middle" font-size="12.5" fill="#3D8261">L2 · The Brain</text>
<g filter="url(#cardshadow)">
<rect x="524.0" y="452.0" width="250" height="125" rx="16" fill="#DBF2E7" stroke="#4FAE83" stroke-width="1.5"></rect>
</g>
<text x="649.0" y="511.6" text-anchor="middle" font-size="15.5" font-weight="600" fill="#1B5E3D">Payment Reminder Agent</text>
<text x="649.0" y="528.2" text-anchor="middle" font-size="12.5" fill="#3D8261">L3 · Specialist</text>
<g filter="url(#cardshadow)">
<rect x="800.0" y="452.0" width="250" height="125" rx="16" fill="#DBF2E7" stroke="#4FAE83" stroke-width="1.5"></rect>
</g>
<text x="925.0" y="501.6" text-anchor="middle" font-size="15.5" font-weight="600" fill="#1B5E3D">Grace Period &amp; Partial</text>
<text x="925.0" y="521.6" text-anchor="middle" font-size="15.5" font-weight="600" fill="#1B5E3D">Payment Agent</text>
<text x="925.0" y="538.2" text-anchor="middle" font-size="12.5" fill="#3D8261">L3 · Specialist</text>
<g filter="url(#cardshadow)">
<rect x="1076.0" y="452.0" width="250" height="125" rx="16" fill="#DBF2E7" stroke="#4FAE83" stroke-width="1.5"></rect>
</g>
<text x="1201.0" y="501.6" text-anchor="middle" font-size="15.5" font-weight="600" fill="#1B5E3D">Service Restriction</text>
<text x="1201.0" y="521.6" text-anchor="middle" font-size="15.5" font-weight="600" fill="#1B5E3D">Agent</text>
<text x="1201.0" y="538.2" text-anchor="middle" font-size="12.5" fill="#3D8261">L3 · Specialist</text>
<g filter="url(#cardshadow)">
<rect x="386.0" y="655.0" width="250" height="125" rx="16" fill="#E4F0F6" stroke="#5FA3C0" stroke-width="1.5"></rect>
</g>
<text x="511.0" y="714.6" text-anchor="middle" font-size="15.5" font-weight="600" fill="#1D4E5F">Working Memory</text>
<text x="511.0" y="731.2" text-anchor="middle" font-size="12.5" fill="#3E7B93">Short-Term · current session</text>
<g filter="url(#cardshadow)">
<rect x="662.0" y="655.0" width="250" height="125" rx="16" fill="#E4F0F6" stroke="#5FA3C0" stroke-width="1.5"></rect>
</g>
<text x="787.0" y="714.6" text-anchor="middle" font-size="15.5" font-weight="600" fill="#1D4E5F">Episodic Memory</text>
<text x="787.0" y="731.2" text-anchor="middle" font-size="12.5" fill="#3E7B93">Long-Term · past cases</text>
<g filter="url(#cardshadow)">
<rect x="938.0" y="655.0" width="250" height="125" rx="16" fill="#E4F0F6" stroke="#5FA3C0" stroke-width="1.5"></rect>
</g>
<text x="1063.0" y="714.6" text-anchor="middle" font-size="15.5" font-weight="600" fill="#1D4E5F">Semantic Memory</text>
<text x="1063.0" y="731.2" text-anchor="middle" font-size="12.5" fill="#3E7B93">Long-Term · domain knowledge</text>
<g filter="url(#cardshadow)">
<rect x="1214.0" y="655.0" width="250" height="125" rx="16" fill="#E4F0F6" stroke="#5FA3C0" stroke-width="1.5"></rect>
</g>
<text x="1339.0" y="714.6" text-anchor="middle" font-size="15.5" font-weight="600" fill="#1D4E5F">Policy Memory</text>
<text x="1339.0" y="731.2" text-anchor="middle" font-size="12.5" fill="#3E7B93">Long-Term · governance rules</text>
<g filter="url(#cardshadow)">
<rect x="524.0" y="858.0" width="250" height="125" rx="16" fill="#DCEBFB" stroke="#5B93C9" stroke-width="1.5"></rect>
</g>
<text x="649.0" y="897.6" text-anchor="middle" font-size="15.5" font-weight="600" fill="#1C4A73">Contact-Frequency</text>
<text x="649.0" y="917.6" text-anchor="middle" font-size="15.5" font-weight="600" fill="#1C4A73">Compliance Policy (Reg</text>
<text x="649.0" y="937.6" text-anchor="middle" font-size="15.5" font-weight="600" fill="#1C4A73">F)</text>
<text x="649.0" y="954.2" text-anchor="middle" font-size="12.5" fill="#3E6D93">L4 · Governance</text>
<g filter="url(#cardshadow)">
<rect x="800.0" y="858.0" width="250" height="125" rx="16" fill="#DCEBFB" stroke="#5B93C9" stroke-width="1.5"></rect>
</g>
<text x="925.0" y="907.6" text-anchor="middle" font-size="15.5" font-weight="600" fill="#1C4A73">Hardship-Indicator</text>
<text x="925.0" y="927.6" text-anchor="middle" font-size="15.5" font-weight="600" fill="#1C4A73">Guardrail</text>
<text x="925.0" y="944.2" text-anchor="middle" font-size="12.5" fill="#3E6D93">L4 · Governance</text>
<g filter="url(#cardshadow)">
<rect x="1076.0" y="858.0" width="250" height="125" rx="16" fill="#DCEBFB" stroke="#5B93C9" stroke-width="1.5"></rect>
</g>
<text x="1201.0" y="917.6" text-anchor="middle" font-size="15.5" font-weight="600" fill="#1C4A73">Dispute-Hold Rule Engine</text>
<text x="1201.0" y="934.2" text-anchor="middle" font-size="12.5" fill="#3E6D93">L4 · Governance</text>
<g filter="url(#cardshadow)">
<rect x="800.0" y="1061.0" width="250" height="125" rx="16" fill="#DCEBFB" stroke="#5B93C9" stroke-width="1.5"></rect>
</g>
<text x="925.0" y="1110.6" text-anchor="middle" font-size="15.5" font-weight="600" fill="#1C4A73">Hardship/Dispute/High-</text>
<text x="925.0" y="1130.6" text-anchor="middle" font-size="15.5" font-weight="600" fill="#1C4A73">Value Risk Gate</text>
<text x="925.0" y="1147.2" text-anchor="middle" font-size="12.5" fill="#3E6D93">Conditional routing</text>
<g filter="url(#cardshadow)">
<rect x="386.0" y="1264.0" width="250" height="125" rx="16" fill="#FBE1E6" stroke="#D9748C" stroke-width="1.5"></rect>
</g>
<text x="511.0" y="1323.6" text-anchor="middle" font-size="15.5" font-weight="600" fill="#7A2B3F">Collections Specialist</text>
<text x="511.0" y="1340.2" text-anchor="middle" font-size="12.5" fill="#9C4F60">Human-in-the-loop</text>
<g filter="url(#cardshadow)">
<rect x="662.0" y="1264.0" width="250" height="125" rx="16" fill="#FBE8CE" stroke="#D89A3F" stroke-width="1.5"></rect>
</g>
<text x="787.0" y="1303.6" text-anchor="middle" font-size="15.5" font-weight="600" fill="#7A4E12">Automated</text>
<text x="787.0" y="1323.6" text-anchor="middle" font-size="15.5" font-weight="600" fill="#7A4E12">Reminder/Restriction</text>
<text x="787.0" y="1343.6" text-anchor="middle" font-size="15.5" font-weight="600" fill="#7A4E12">Execution</text>
<text x="787.0" y="1360.2" text-anchor="middle" font-size="12.5" fill="#9C6B22">L5 · Tool Registry</text>
<g filter="url(#cardshadow)">
<rect x="938.0" y="1264.0" width="250" height="125" rx="16" fill="#FBE8CE" stroke="#D89A3F" stroke-width="1.5"></rect>
</g>
<text x="1063.0" y="1313.6" text-anchor="middle" font-size="15.5" font-weight="600" fill="#7A4E12">Customer Continuity</text>
<text x="1063.0" y="1333.6" text-anchor="middle" font-size="15.5" font-weight="600" fill="#7A4E12">Adjustment</text>
<text x="1063.0" y="1350.2" text-anchor="middle" font-size="12.5" fill="#9C6B22">L5 · Tool Registry</text>
<g filter="url(#cardshadow)">
<rect x="1214.0" y="1264.0" width="250" height="125" rx="16" fill="#EAE1F8" stroke="#9575CD" stroke-width="1.5"></rect>
</g>
<text x="1339.0" y="1313.6" text-anchor="middle" font-size="15.5" font-weight="600" fill="#4A2E7A">Hardship Program</text>
<text x="1339.0" y="1333.6" text-anchor="middle" font-size="15.5" font-weight="600" fill="#4A2E7A">Enrollment Queue</text>
<text x="1339.0" y="1350.2" text-anchor="middle" font-size="12.5" fill="#6B4A9E">Conditional: policy breach</text>
<g filter="url(#cardshadow)">
<rect x="524.0" y="1467.0" width="250" height="125" rx="16" fill="#EAE1F8" stroke="#9575CD" stroke-width="1.5"></rect>
</g>
<text x="649.0" y="1516.6" text-anchor="middle" font-size="15.5" font-weight="600" fill="#4A2E7A">Restriction/Complaint</text>
<text x="649.0" y="1536.6" text-anchor="middle" font-size="15.5" font-weight="600" fill="#4A2E7A">Monitor</text>
<text x="649.0" y="1553.2" text-anchor="middle" font-size="12.5" fill="#6B4A9E">L6 · Nervous System</text>
<g filter="url(#cardshadow)">
<rect x="800.0" y="1467.0" width="250" height="125" rx="16" fill="#EAE1F8" stroke="#9575CD" stroke-width="1.5"></rect>
</g>
<text x="925.0" y="1516.6" text-anchor="middle" font-size="15.5" font-weight="600" fill="#4A2E7A">Contact-Frequency</text>
<text x="925.0" y="1536.6" text-anchor="middle" font-size="15.5" font-weight="600" fill="#4A2E7A">Watchdog</text>
<text x="925.0" y="1553.2" text-anchor="middle" font-size="12.5" fill="#6B4A9E">L6 · Nervous System</text>
<g filter="url(#cardshadow)">
<rect x="1076.0" y="1467.0" width="250" height="125" rx="16" fill="#EAE1F8" stroke="#9575CD" stroke-width="1.5"></rect>
</g>
<text x="1201.0" y="1526.6" text-anchor="middle" font-size="15.5" font-weight="600" fill="#4A2E7A">Suspension Auditor</text>
<text x="1201.0" y="1543.2" text-anchor="middle" font-size="12.5" fill="#6B4A9E">L6 · Nervous System</text>
<g filter="url(#cardshadow)">
<rect x="524.0" y="1670.0" width="250" height="125" rx="16" fill="#FBE1E6" stroke="#D9748C" stroke-width="1.5"></rect>
</g>
<text x="649.0" y="1729.6" text-anchor="middle" font-size="15.5" font-weight="600" fill="#7A2B3F">Recovery-Rate Dashboard</text>
<text x="649.0" y="1746.2" text-anchor="middle" font-size="12.5" fill="#9C4F60">L7 · Leadership Portal</text>
<g filter="url(#cardshadow)">
<rect x="800.0" y="1670.0" width="250" height="125" rx="16" fill="#FBE1E6" stroke="#D9748C" stroke-width="1.5"></rect>
</g>
<text x="925.0" y="1729.6" text-anchor="middle" font-size="15.5" font-weight="600" fill="#7A2B3F">Complaint-Rate Scorecard</text>
<text x="925.0" y="1746.2" text-anchor="middle" font-size="12.5" fill="#9C4F60">L7 · Leadership Portal</text>
<g filter="url(#cardshadow)">
<rect x="1076.0" y="1670.0" width="250" height="125" rx="16" fill="#FBE1E6" stroke="#D9748C" stroke-width="1.5"></rect>
</g>
<text x="1201.0" y="1729.6" text-anchor="middle" font-size="15.5" font-weight="600" fill="#7A2B3F">Hardship Enrollment View</text>
<text x="1201.0" y="1746.2" text-anchor="middle" font-size="12.5" fill="#9C4F60">L7 · Leadership Portal</text>
<g filter="url(#cardshadow)">
<rect x="524.0" y="1873.0" width="250" height="125" rx="16" fill="#EAE1F8" stroke="#9575CD" stroke-width="1.5"></rect>
</g>
<text x="649.0" y="1922.6" text-anchor="middle" font-size="15.5" font-weight="600" fill="#4A2E7A">Risk-Gate Accuracy</text>
<text x="649.0" y="1942.6" text-anchor="middle" font-size="15.5" font-weight="600" fill="#4A2E7A">Tracker</text>
<text x="649.0" y="1959.2" text-anchor="middle" font-size="12.5" fill="#6B4A9E">L8 · Self-Healing</text>
<g filter="url(#cardshadow)">
<rect x="800.0" y="1873.0" width="250" height="125" rx="16" fill="#EAE1F8" stroke="#9575CD" stroke-width="1.5"></rect>
</g>
<text x="925.0" y="1922.6" text-anchor="middle" font-size="15.5" font-weight="600" fill="#4A2E7A">Escalation-Rule</text>
<text x="925.0" y="1942.6" text-anchor="middle" font-size="15.5" font-weight="600" fill="#4A2E7A">Retraining Trigger</text>
<text x="925.0" y="1959.2" text-anchor="middle" font-size="12.5" fill="#6B4A9E">L8 · Self-Healing</text>
<g filter="url(#cardshadow)">
<rect x="1076.0" y="1873.0" width="250" height="125" rx="16" fill="#EAE1F8" stroke="#9575CD" stroke-width="1.5"></rect>
</g>
<text x="1201.0" y="1932.6" text-anchor="middle" font-size="15.5" font-weight="600" fill="#4A2E7A">Policy Memory Updater</text>
<text x="1201.0" y="1949.2" text-anchor="middle" font-size="12.5" fill="#6B4A9E">L8 · Self-Healing</text>
</svg>