<svg xmlns="http://www.w3.org/2000/svg" viewBox="0 0 1170 826" font-family="&#39;Inter&#39;,&#39;IBM Plex Sans&#39;,-apple-system,sans-serif">
<defs>
<marker id="arrow" viewBox="0 0 10 10" refX="8" refY="5" markerWidth="7" markerHeight="7" orient="auto-start-reverse">
<path d="M0,0 L10,5 L0,10 z" fill="#9AA3AE"></path>
</marker>
<filter id="cardshadow" x="-20%" y="-20%" width="140%" height="140%">
<feDropShadow dx="0" dy="1.5" stdDeviation="2.5" flood-color="#1a1a1a" flood-opacity="0.08"></feDropShadow>
</filter>
</defs>
<rect x="0" y="0" width="1170" height="826" fill="#FFFFFF"></rect>
<path d="M 171.0 171.0 L 171.0 198.0 Q 171.0 210.0 183.0 210.0 L 435.0 210.0 Q 447.0 210.0 447.0 222.0 L 447.0 249.0" fill="none" stroke="#9AA3AE" stroke-width="1.75" marker-end="url(#arrow)"></path>
<path d="M 447.0 171.0 L 447.0 249.0" fill="none" stroke="#9AA3AE" stroke-width="1.75" marker-end="url(#arrow)"></path>
<path d="M 723.0 171.0 L 723.0 198.0 Q 723.0 210.0 711.0 210.0 L 459.0 210.0 Q 447.0 210.0 447.0 222.0 L 447.0 249.0" fill="none" stroke="#9AA3AE" stroke-width="1.75" marker-end="url(#arrow)"></path>
<path d="M 999.0 171.0 L 999.0 198.0 Q 999.0 210.0 987.0 210.0 L 459.0 210.0 Q 447.0 210.0 447.0 222.0 L 447.0 249.0" fill="none" stroke="#9AA3AE" stroke-width="1.75" marker-end="url(#arrow)"></path>
<path d="M 572.0 311.5 L 598.0 311.5" fill="none" stroke="#9AA3AE" stroke-width="1.75" marker-end="url(#arrow)"></path>
<path d="M 598.0 311.5 L 572.0 311.5" fill="none" stroke="#9AA3AE" stroke-width="1.75" stroke-dasharray="5 4" marker-end="url(#arrow)"></path>
<path d="M 723.0 374.0 L 723.0 401.0 Q 723.0 413.0 711.0 413.0 L 597.0 413.0 Q 585.0 413.0 585.0 425.0 L 585.0 452.0" fill="none" stroke="#9AA3AE" stroke-width="1.75" marker-end="url(#arrow)"></path>
<path d="M 585.0 577.0 L 585.0 604.0 Q 585.0 616.0 573.0 616.0 L 321.0 616.0 Q 309.0 616.0 309.0 628.0 L 309.0 655.0" fill="none" stroke="#9AA3AE" stroke-width="1.75" marker-end="url(#arrow)"></path>
<path d="M 585.0 577.0 L 585.0 655.0" fill="none" stroke="#9AA3AE" stroke-width="1.75" marker-end="url(#arrow)"></path>
<path d="M 585.0 577.0 L 585.0 604.0 Q 585.0 616.0 597.0 616.0 L 849.0 616.0 Q 861.0 616.0 861.0 628.0 L 861.0 655.0" fill="none" stroke="#9AA3AE" stroke-width="1.75" marker-end="url(#arrow)"></path>
<g filter="url(#cardshadow)">
<rect x="46.0" y="46.0" width="250" height="125" rx="16" fill="#F2EEE3" stroke="#C7BC9E" stroke-width="1.5"></rect>
</g>
<text x="171.0" y="105.6" text-anchor="middle" font-size="15.5" font-weight="600" fill="#4A4432">Trading Activity Data</text>
<text x="171.0" y="122.2" text-anchor="middle" font-size="12.5" fill="#8C8365">Data &amp; Integration</text>
<g filter="url(#cardshadow)">
<rect x="322.0" y="46.0" width="250" height="125" rx="16" fill="#F2EEE3" stroke="#C7BC9E" stroke-width="1.5"></rect>
</g>
<text x="447.0" y="95.6" text-anchor="middle" font-size="15.5" font-weight="600" fill="#4A4432">MNPI Access Logs (deal</text>
<text x="447.0" y="115.6" text-anchor="middle" font-size="15.5" font-weight="600" fill="#4A4432">rooms, restricted lists)</text>
<text x="447.0" y="132.2" text-anchor="middle" font-size="12.5" fill="#8C8365">Data &amp; Integration</text>
<g filter="url(#cardshadow)">
<rect x="598.0" y="46.0" width="250" height="125" rx="16" fill="#F2EEE3" stroke="#C7BC9E" stroke-width="1.5"></rect>
</g>
<text x="723.0" y="85.6" text-anchor="middle" font-size="15.5" font-weight="600" fill="#4A4432">Communications</text>
<text x="723.0" y="105.6" text-anchor="middle" font-size="15.5" font-weight="600" fill="#4A4432">Surveillance</text>
<text x="723.0" y="125.6" text-anchor="middle" font-size="15.5" font-weight="600" fill="#4A4432">(email/chat)</text>
<text x="723.0" y="142.2" text-anchor="middle" font-size="12.5" fill="#8C8365">Data &amp; Integration</text>
<g filter="url(#cardshadow)">
<rect x="874.0" y="46.0" width="250" height="125" rx="16" fill="#F2EEE3" stroke="#C7BC9E" stroke-width="1.5"></rect>
</g>
<text x="999.0" y="85.6" text-anchor="middle" font-size="15.5" font-weight="600" fill="#4A4432">Corporate Event Calendar</text>
<text x="999.0" y="105.6" text-anchor="middle" font-size="15.5" font-weight="600" fill="#4A4432">(earnings, M&amp;A</text>
<text x="999.0" y="125.6" text-anchor="middle" font-size="15.5" font-weight="600" fill="#4A4432">announcements)</text>
<text x="999.0" y="142.2" text-anchor="middle" font-size="12.5" fill="#8C8365">Data &amp; Integration</text>
<g filter="url(#cardshadow)">
<rect x="322.0" y="249.0" width="250" height="125" rx="16" fill="#DBF2E7" stroke="#4FAE83" stroke-width="1.5"></rect>
</g>
<text x="447.0" y="298.6" text-anchor="middle" font-size="15.5" font-weight="600" fill="#1B5E3D">Suspicious Trading</text>
<text x="447.0" y="318.6" text-anchor="middle" font-size="15.5" font-weight="600" fill="#1B5E3D">Pattern Proposer Agent</text>
<text x="447.0" y="335.2" text-anchor="middle" font-size="12.5" fill="#3D8261">Proposes</text>
<g filter="url(#cardshadow)">
<rect x="598.0" y="249.0" width="250" height="125" rx="16" fill="#DBF2E7" stroke="#4FAE83" stroke-width="1.5"></rect>
</g>
<text x="723.0" y="298.6" text-anchor="middle" font-size="15.5" font-weight="600" fill="#1B5E3D">Alternative Explanation</text>
<text x="723.0" y="318.6" text-anchor="middle" font-size="15.5" font-weight="600" fill="#1B5E3D">Critic Agent</text>
<text x="723.0" y="335.2" text-anchor="middle" font-size="12.5" fill="#3D8261">Challenges</text>
<g filter="url(#cardshadow)">
<rect x="460.0" y="452.0" width="250" height="125" rx="16" fill="#DCEBFB" stroke="#5B93C9" stroke-width="1.5"></rect>
</g>
<text x="585.0" y="501.6" text-anchor="middle" font-size="15.5" font-weight="600" fill="#1C4A73">Surveillance Case</text>
<text x="585.0" y="521.6" text-anchor="middle" font-size="15.5" font-weight="600" fill="#1C4A73">Arbiter Agent</text>
<text x="585.0" y="538.2" text-anchor="middle" font-size="12.5" fill="#3E6D93">Final decision</text>
<g filter="url(#cardshadow)">
<rect x="184.0" y="655.0" width="250" height="125" rx="16" fill="#FBE8CE" stroke="#D89A3F" stroke-width="1.5"></rect>
</g>
<text x="309.0" y="704.6" text-anchor="middle" font-size="15.5" font-weight="600" fill="#7A4E12">Compliance Officer Case</text>
<text x="309.0" y="724.6" text-anchor="middle" font-size="15.5" font-weight="600" fill="#7A4E12">Assignment</text>
<text x="309.0" y="741.2" text-anchor="middle" font-size="12.5" fill="#9C6B22">Action &amp; Execution</text>
<g filter="url(#cardshadow)">
<rect x="460.0" y="655.0" width="250" height="125" rx="16" fill="#FBE8CE" stroke="#D89A3F" stroke-width="1.5"></rect>
</g>
<text x="585.0" y="704.6" text-anchor="middle" font-size="15.5" font-weight="600" fill="#7A4E12">Regulatory Referral</text>
<text x="585.0" y="724.6" text-anchor="middle" font-size="15.5" font-weight="600" fill="#7A4E12">(SEC/FCA)</text>
<text x="585.0" y="741.2" text-anchor="middle" font-size="12.5" fill="#9C6B22">Action &amp; Execution</text>
<g filter="url(#cardshadow)">
<rect x="736.0" y="655.0" width="250" height="125" rx="16" fill="#FBE8CE" stroke="#D89A3F" stroke-width="1.5"></rect>
</g>
<text x="861.0" y="704.6" text-anchor="middle" font-size="15.5" font-weight="600" fill="#7A4E12">Employee Trading</text>
<text x="861.0" y="724.6" text-anchor="middle" font-size="15.5" font-weight="600" fill="#7A4E12">Restriction</text>
<text x="861.0" y="741.2" text-anchor="middle" font-size="12.5" fill="#9C6B22">Action &amp; Execution</text>
</svg>