<svg xmlns="http://www.w3.org/2000/svg" viewBox="0 0 1446 1232" font-family="'Inter','IBM Plex Sans',-apple-system,sans-serif">
<defs>
<marker id="arrow" viewBox="0 0 10 10" refX="8" refY="5" markerWidth="7" markerHeight="7" orient="auto-start-reverse">
<path d="M0,0 L10,5 L0,10 z" fill="#9AA3AE"/>
</marker>
<filter id="cardshadow" x="-20%" y="-20%" width="140%" height="140%">
<feDropShadow dx="0" dy="1.5" stdDeviation="2.5" flood-color="#1a1a1a" flood-opacity="0.08"/>
</filter>
</defs>
<rect x="0" y="0" width="1446" height="1232" fill="#FFFFFF"/>
<path d="M 309.0 171.0 L 309.0 198.0 Q 309.0 210.0 321.0 210.0 L 711.0 210.0 Q 723.0 210.0 723.0 222.0 L 723.0 249.0" fill="none" stroke="#9AA3AE" stroke-width="1.75" marker-end="url(#arrow)"/>
<path d="M 585.0 171.0 L 585.0 198.0 Q 585.0 210.0 597.0 210.0 L 711.0 210.0 Q 723.0 210.0 723.0 222.0 L 723.0 249.0" fill="none" stroke="#9AA3AE" stroke-width="1.75" marker-end="url(#arrow)"/>
<path d="M 861.0 171.0 L 861.0 198.0 Q 861.0 210.0 849.0 210.0 L 735.0 210.0 Q 723.0 210.0 723.0 222.0 L 723.0 249.0" fill="none" stroke="#9AA3AE" stroke-width="1.75" marker-end="url(#arrow)"/>
<path d="M 1137.0 171.0 L 1137.0 198.0 Q 1137.0 210.0 1125.0 210.0 L 735.0 210.0 Q 723.0 210.0 723.0 222.0 L 723.0 249.0" fill="none" stroke="#9AA3AE" stroke-width="1.75" marker-end="url(#arrow)"/>
<path d="M 723.0 374.0 L 723.0 401.0 Q 723.0 413.0 711.0 413.0 L 183.0 413.0 Q 171.0 413.0 171.0 425.0 L 171.0 452.0" fill="none" stroke="#9AA3AE" stroke-width="1.75" marker-end="url(#arrow)"/>
<path d="M 171.0 577.0 L 171.0 604.0 Q 171.0 616.0 183.0 616.0 L 711.0 616.0 Q 723.0 616.0 723.0 628.0 L 723.0 655.0" fill="none" stroke="#9AA3AE" stroke-width="1.75" marker-end="url(#arrow)"/>
<path d="M 723.0 374.0 L 723.0 401.0 Q 723.0 413.0 711.0 413.0 L 459.0 413.0 Q 447.0 413.0 447.0 425.0 L 447.0 452.0" fill="none" stroke="#9AA3AE" stroke-width="1.75" marker-end="url(#arrow)"/>
<path d="M 447.0 577.0 L 447.0 604.0 Q 447.0 616.0 459.0 616.0 L 711.0 616.0 Q 723.0 616.0 723.0 628.0 L 723.0 655.0" fill="none" stroke="#9AA3AE" stroke-width="1.75" marker-end="url(#arrow)"/>
<path d="M 723.0 374.0 L 723.0 452.0" fill="none" stroke="#9AA3AE" stroke-width="1.75" marker-end="url(#arrow)"/>
<path d="M 723.0 577.0 L 723.0 655.0" fill="none" stroke="#9AA3AE" stroke-width="1.75" marker-end="url(#arrow)"/>
<path d="M 723.0 374.0 L 723.0 401.0 Q 723.0 413.0 735.0 413.0 L 987.0 413.0 Q 999.0 413.0 999.0 425.0 L 999.0 452.0" fill="none" stroke="#9AA3AE" stroke-width="1.75" marker-end="url(#arrow)"/>
<path d="M 999.0 577.0 L 999.0 604.0 Q 999.0 616.0 987.0 616.0 L 735.0 616.0 Q 723.0 616.0 723.0 628.0 L 723.0 655.0" fill="none" stroke="#9AA3AE" stroke-width="1.75" marker-end="url(#arrow)"/>
<path d="M 723.0 374.0 L 723.0 401.0 Q 723.0 413.0 735.0 413.0 L 1263.0 413.0 Q 1275.0 413.0 1275.0 425.0 L 1275.0 452.0" fill="none" stroke="#9AA3AE" stroke-width="1.75" marker-end="url(#arrow)"/>
<path d="M 1275.0 577.0 L 1275.0 604.0 Q 1275.0 616.0 1263.0 616.0 L 735.0 616.0 Q 723.0 616.0 723.0 628.0 L 723.0 655.0" fill="none" stroke="#9AA3AE" stroke-width="1.75" marker-end="url(#arrow)"/>
<path d="M 723.0 780.0 L 723.0 858.0" fill="none" stroke="#9AA3AE" stroke-width="1.75" marker-end="url(#arrow)"/>
<path d="M 723.0 983.0 L 723.0 1010.0 Q 723.0 1022.0 711.0 1022.0 L 459.0 1022.0 Q 447.0 1022.0 447.0 1034.0 L 447.0 1061.0" fill="none" stroke="#9AA3AE" stroke-width="1.75" marker-end="url(#arrow)"/>
<path d="M 723.0 983.0 L 723.0 1061.0" fill="none" stroke="#9AA3AE" stroke-width="1.75" marker-end="url(#arrow)"/>
<path d="M 723.0 983.0 L 723.0 1010.0 Q 723.0 1022.0 735.0 1022.0 L 987.0 1022.0 Q 999.0 1022.0 999.0 1034.0 L 999.0 1061.0" fill="none" stroke="#9AA3AE" stroke-width="1.75" marker-end="url(#arrow)"/>
<g filter="url(#cardshadow)">
<rect x="184.0" y="46.0" width="250" height="125" rx="16" fill="#F2EEE3" stroke="#C7BC9E" stroke-width="1.5"/>
</g>
<text x="309.0" y="105.6" text-anchor="middle" font-size="15.5" font-weight="600" fill="#4A4432">SIEM (Splunk/Sentinel)</text>
<text x="309.0" y="122.2" text-anchor="middle" font-size="12.5" fill="#8C8365">Data &amp; Integration</text>
<g filter="url(#cardshadow)">
<rect x="460.0" y="46.0" width="250" height="125" rx="16" fill="#F2EEE3" stroke="#C7BC9E" stroke-width="1.5"/>
</g>
<text x="585.0" y="105.6" text-anchor="middle" font-size="15.5" font-weight="600" fill="#4A4432">Signaling Firewall Logs</text>
<text x="585.0" y="122.2" text-anchor="middle" font-size="12.5" fill="#8C8365">Data &amp; Integration</text>
<g filter="url(#cardshadow)">
<rect x="736.0" y="46.0" width="250" height="125" rx="16" fill="#F2EEE3" stroke="#C7BC9E" stroke-width="1.5"/>
</g>
<text x="861.0" y="105.6" text-anchor="middle" font-size="15.5" font-weight="600" fill="#4A4432">NetFlow/sFlow Data</text>
<text x="861.0" y="122.2" text-anchor="middle" font-size="12.5" fill="#8C8365">Data &amp; Integration</text>
<g filter="url(#cardshadow)">
<rect x="1012.0" y="46.0" width="250" height="125" rx="16" fill="#F2EEE3" stroke="#C7BC9E" stroke-width="1.5"/>
</g>
<text x="1137.0" y="95.6" text-anchor="middle" font-size="15.5" font-weight="600" fill="#4A4432">Threat Intel Feeds</text>
<text x="1137.0" y="115.6" text-anchor="middle" font-size="15.5" font-weight="600" fill="#4A4432">(STIX/TAXII)</text>
<text x="1137.0" y="132.2" text-anchor="middle" font-size="12.5" fill="#8C8365">Data &amp; Integration</text>
<g filter="url(#cardshadow)">
<rect x="598.0" y="249.0" width="250" height="125" rx="16" fill="#DCEBFB" stroke="#5B93C9" stroke-width="1.5"/>
</g>
<text x="723.0" y="298.6" text-anchor="middle" font-size="15.5" font-weight="600" fill="#1C4A73">SOC Incident Response</text>
<text x="723.0" y="318.6" text-anchor="middle" font-size="15.5" font-weight="600" fill="#1C4A73">Orchestrator</text>
<text x="723.0" y="335.2" text-anchor="middle" font-size="12.5" fill="#3E6D93">Orchestration</text>
<g filter="url(#cardshadow)">
<rect x="46.0" y="452.0" width="250" height="125" rx="16" fill="#DBF2E7" stroke="#4FAE83" stroke-width="1.5"/>
</g>
<text x="171.0" y="491.6" text-anchor="middle" font-size="15.5" font-weight="600" fill="#1B5E3D">Signaling Abuse</text>
<text x="171.0" y="511.6" text-anchor="middle" font-size="15.5" font-weight="600" fill="#1B5E3D">Detection Agent</text>
<text x="171.0" y="531.6" text-anchor="middle" font-size="15.5" font-weight="600" fill="#1B5E3D">(SS7/Diameter/GTP)</text>
<text x="171.0" y="548.2" text-anchor="middle" font-size="12.5" fill="#3D8261">Specialist Agent</text>
<g filter="url(#cardshadow)">
<rect x="322.0" y="452.0" width="250" height="125" rx="16" fill="#DBF2E7" stroke="#4FAE83" stroke-width="1.5"/>
</g>
<text x="447.0" y="511.6" text-anchor="middle" font-size="15.5" font-weight="600" fill="#1B5E3D">DDoS Detection Agent</text>
<text x="447.0" y="528.2" text-anchor="middle" font-size="12.5" fill="#3D8261">Specialist Agent</text>
<g filter="url(#cardshadow)">
<rect x="598.0" y="452.0" width="250" height="125" rx="16" fill="#DBF2E7" stroke="#4FAE83" stroke-width="1.5"/>
</g>
<text x="723.0" y="511.6" text-anchor="middle" font-size="15.5" font-weight="600" fill="#1B5E3D">SIEM Correlation Agent</text>
<text x="723.0" y="528.2" text-anchor="middle" font-size="12.5" fill="#3D8261">Specialist Agent</text>
<g filter="url(#cardshadow)">
<rect x="874.0" y="452.0" width="250" height="125" rx="16" fill="#DBF2E7" stroke="#4FAE83" stroke-width="1.5"/>
</g>
<text x="999.0" y="501.6" text-anchor="middle" font-size="15.5" font-weight="600" fill="#1B5E3D">Threat Intelligence</text>
<text x="999.0" y="521.6" text-anchor="middle" font-size="15.5" font-weight="600" fill="#1B5E3D">Enrichment Agent</text>
<text x="999.0" y="538.2" text-anchor="middle" font-size="12.5" fill="#3D8261">Specialist Agent</text>
<g filter="url(#cardshadow)">
<rect x="1150.0" y="452.0" width="250" height="125" rx="16" fill="#DBF2E7" stroke="#4FAE83" stroke-width="1.5"/>
</g>
<text x="1275.0" y="501.6" text-anchor="middle" font-size="15.5" font-weight="600" fill="#1B5E3D">Insider-Threat</text>
<text x="1275.0" y="521.6" text-anchor="middle" font-size="15.5" font-weight="600" fill="#1B5E3D">Behavioral Agent</text>
<text x="1275.0" y="538.2" text-anchor="middle" font-size="12.5" fill="#3D8261">Specialist Agent</text>
<g filter="url(#cardshadow)">
<rect x="598.0" y="655.0" width="250" height="125" rx="16" fill="#DBF2E7" stroke="#4FAE83" stroke-width="1.5"/>
</g>
<text x="723.0" y="704.6" text-anchor="middle" font-size="15.5" font-weight="600" fill="#1B5E3D">Aggregator / Synthesis</text>
<text x="723.0" y="724.6" text-anchor="middle" font-size="15.5" font-weight="600" fill="#1B5E3D">Agent</text>
<text x="723.0" y="741.2" text-anchor="middle" font-size="12.5" fill="#3D8261">Combines findings</text>
<g filter="url(#cardshadow)">
<rect x="598.0" y="858.0" width="250" height="125" rx="16" fill="#EAE1F8" stroke="#9575CD" stroke-width="1.5"/>
</g>
<text x="723.0" y="897.6" text-anchor="middle" font-size="15.5" font-weight="600" fill="#4A2E7A">SOC Tier-2 Analyst</text>
<text x="723.0" y="917.6" text-anchor="middle" font-size="15.5" font-weight="600" fill="#4A2E7A">Approval for Containment</text>
<text x="723.0" y="937.6" text-anchor="middle" font-size="15.5" font-weight="600" fill="#4A2E7A">Actions</text>
<text x="723.0" y="954.2" text-anchor="middle" font-size="12.5" fill="#6B4A9E">Human review</text>
<g filter="url(#cardshadow)">
<rect x="322.0" y="1061.0" width="250" height="125" rx="16" fill="#FBE8CE" stroke="#D89A3F" stroke-width="1.5"/>
</g>
<text x="447.0" y="1110.6" text-anchor="middle" font-size="15.5" font-weight="600" fill="#7A4E12">Auto-block via Signaling</text>
<text x="447.0" y="1130.6" text-anchor="middle" font-size="15.5" font-weight="600" fill="#7A4E12">Firewall</text>
<text x="447.0" y="1147.2" text-anchor="middle" font-size="12.5" fill="#9C6B22">Action &amp; Execution</text>
<g filter="url(#cardshadow)">
<rect x="598.0" y="1061.0" width="250" height="125" rx="16" fill="#FBE8CE" stroke="#D89A3F" stroke-width="1.5"/>
</g>
<text x="723.0" y="1120.6" text-anchor="middle" font-size="15.5" font-weight="600" fill="#7A4E12">SOAR Playbook Execution</text>
<text x="723.0" y="1137.2" text-anchor="middle" font-size="12.5" fill="#9C6B22">Action &amp; Execution</text>
<g filter="url(#cardshadow)">
<rect x="874.0" y="1061.0" width="250" height="125" rx="16" fill="#FBE8CE" stroke="#D89A3F" stroke-width="1.5"/>
</g>
<text x="999.0" y="1110.6" text-anchor="middle" font-size="15.5" font-weight="600" fill="#7A4E12">Analyst Case in SOAR</text>
<text x="999.0" y="1130.6" text-anchor="middle" font-size="15.5" font-weight="600" fill="#7A4E12">Platform</text>
<text x="999.0" y="1147.2" text-anchor="middle" font-size="12.5" fill="#9C6B22">Action &amp; Execution</text>
</svg>