<svg xmlns="http://www.w3.org/2000/svg" viewBox="0 0 1510 2247" font-family="&#39;Inter&#39;,&#39;IBM Plex Sans&#39;,-apple-system,sans-serif">
<defs>
<marker id="arrow" viewBox="0 0 10 10" refX="8" refY="5" markerWidth="7" markerHeight="7" orient="auto-start-reverse">
<path d="M0,0 L10,5 L0,10 z" fill="#9AA3AE"></path>
</marker>
<filter id="cardshadow" x="-20%" y="-20%" width="140%" height="140%">
<feDropShadow dx="0" dy="1.5" stdDeviation="2.5" flood-color="#1a1a1a" flood-opacity="0.08"></feDropShadow>
</filter>
</defs>
<rect x="0" y="0" width="1510" height="2247" fill="#FFFFFF"></rect>
<path d="M 649.0 171.0 L 649.0 249.0" fill="none" stroke="#9AA3AE" stroke-width="1.75" marker-end="url(#arrow)"></path>
<path d="M 925.0 171.0 L 925.0 198.0 Q 925.0 210.0 913.0 210.0 L 661.0 210.0 Q 649.0 210.0 649.0 222.0 L 649.0 249.0" fill="none" stroke="#9AA3AE" stroke-width="1.75" marker-end="url(#arrow)"></path>
<path d="M 1201.0 171.0 L 1201.0 198.0 Q 1201.0 210.0 1189.0 210.0 L 661.0 210.0 Q 649.0 210.0 649.0 222.0 L 649.0 249.0" fill="none" stroke="#9AA3AE" stroke-width="1.75" marker-end="url(#arrow)"></path>
<path d="M 774.0 311.5 L 800.0 311.5" fill="none" stroke="#9AA3AE" stroke-width="1.75" marker-end="url(#arrow)"></path>
<path d="M 774.0 311.5 L 1076.0 311.5" fill="none" stroke="#9AA3AE" stroke-width="1.75" marker-end="url(#arrow)"></path>
<path d="M 925.0 374.0 L 925.0 452.0" fill="none" stroke="#9AA3AE" stroke-width="1.75" marker-end="url(#arrow)"></path>
<path d="M 1201.0 374.0 L 1201.0 401.0 Q 1201.0 413.0 1189.0 413.0 L 937.0 413.0 Q 925.0 413.0 925.0 425.0 L 925.0 452.0" fill="none" stroke="#9AA3AE" stroke-width="1.75" marker-end="url(#arrow)"></path>
<path d="M 925.0 577.0 L 925.0 604.0 Q 925.0 616.0 913.0 616.0 L 523.0 616.0 Q 511.0 616.0 511.0 628.0 L 511.0 655.0" fill="none" stroke="#9AA3AE" stroke-width="1.75" marker-end="url(#arrow)"></path>
<path d="M 925.0 577.0 L 925.0 604.0 Q 925.0 616.0 913.0 616.0 L 799.0 616.0 Q 787.0 616.0 787.0 628.0 L 787.0 655.0" fill="none" stroke="#9AA3AE" stroke-width="1.75" marker-end="url(#arrow)"></path>
<path d="M 925.0 577.0 L 925.0 604.0 Q 925.0 616.0 937.0 616.0 L 1051.0 616.0 Q 1063.0 616.0 1063.0 628.0 L 1063.0 655.0" fill="none" stroke="#9AA3AE" stroke-width="1.75" marker-end="url(#arrow)"></path>
<path d="M 925.0 577.0 L 925.0 604.0 Q 925.0 616.0 937.0 616.0 L 1327.0 616.0 Q 1339.0 616.0 1339.0 628.0 L 1339.0 655.0" fill="none" stroke="#9AA3AE" stroke-width="1.75" marker-end="url(#arrow)"></path>
<path d="M 925.0 577.0 L 925.0 705.5 Q 925.0 717.5 913.0 717.5 L 523.0 717.5 Q 511.0 717.5 511.0 729.5 L 511.0 858.0" fill="none" stroke="#9AA3AE" stroke-width="1.75" stroke-dasharray="5 4" marker-end="url(#arrow)" marker-start="url(#arrow)"></path>
<path d="M 511.0 780.0 L 511.0 807.0 Q 511.0 819.0 523.0 819.0 L 775.0 819.0 Q 787.0 819.0 787.0 831.0 L 787.0 858.0" fill="none" stroke="#9AA3AE" stroke-width="1.75" stroke-dasharray="5 4" marker-end="url(#arrow)" marker-start="url(#arrow)"></path>
<path d="M 787.0 780.0 L 787.0 807.0 Q 787.0 819.0 799.0 819.0 L 1051.0 819.0 Q 1063.0 819.0 1063.0 831.0 L 1063.0 858.0" fill="none" stroke="#9AA3AE" stroke-width="1.75" stroke-dasharray="5 4" marker-end="url(#arrow)" marker-start="url(#arrow)"></path>
<path d="M 1063.0 780.0 L 1063.0 807.0 Q 1063.0 819.0 1075.0 819.0 L 1327.0 819.0 Q 1339.0 819.0 1339.0 831.0 L 1339.0 858.0" fill="none" stroke="#9AA3AE" stroke-width="1.75" stroke-dasharray="5 4" marker-end="url(#arrow)" marker-start="url(#arrow)"></path>
<path d="M 511.0 780.0 L 511.0 908.5 Q 511.0 920.5 523.0 920.5 L 637.0 920.5 Q 649.0 920.5 649.0 932.5 L 649.0 1061.0" fill="none" stroke="#9AA3AE" stroke-width="1.75" marker-end="url(#arrow)"></path>
<path d="M 787.0 780.0 L 787.0 908.5 Q 787.0 920.5 799.0 920.5 L 913.0 920.5 Q 925.0 920.5 925.0 932.5 L 925.0 1061.0" fill="none" stroke="#9AA3AE" stroke-width="1.75" marker-end="url(#arrow)"></path>
<path d="M 1063.0 780.0 L 1063.0 908.5 Q 1063.0 920.5 1075.0 920.5 L 1189.0 920.5 Q 1201.0 920.5 1201.0 932.5 L 1201.0 1061.0" fill="none" stroke="#9AA3AE" stroke-width="1.75" marker-end="url(#arrow)"></path>
<path d="M 1339.0 780.0 L 1339.0 908.5 Q 1339.0 920.5 1327.0 920.5 L 661.0 920.5 Q 649.0 920.5 649.0 932.5 L 649.0 1061.0" fill="none" stroke="#9AA3AE" stroke-width="1.75" marker-end="url(#arrow)"></path>
<path d="M 649.0 1186.0 L 649.0 1213.0 Q 649.0 1225.0 661.0 1225.0 L 913.0 1225.0 Q 925.0 1225.0 925.0 1237.0 L 925.0 1264.0" fill="none" stroke="#9AA3AE" stroke-width="1.75" marker-end="url(#arrow)"></path>
<path d="M 925.0 1186.0 L 925.0 1264.0" fill="none" stroke="#9AA3AE" stroke-width="1.75" marker-end="url(#arrow)"></path>
<path d="M 1201.0 1186.0 L 1201.0 1213.0 Q 1201.0 1225.0 1189.0 1225.0 L 937.0 1225.0 Q 925.0 1225.0 925.0 1237.0 L 925.0 1264.0" fill="none" stroke="#9AA3AE" stroke-width="1.75" marker-end="url(#arrow)"></path>
<path d="M 925.0 1389.0 L 925.0 1416.0 Q 925.0 1428.0 913.0 1428.0 L 523.0 1428.0 Q 511.0 1428.0 511.0 1440.0 L 511.0 1467.0" fill="none" stroke="#9AA3AE" stroke-width="1.75" marker-end="url(#arrow)"></path>
<g><rect x="655.6" y="1417.0" width="124.8" height="20" rx="9" fill="#FFFFFF" stroke="#D8DCE2" stroke-width="1"></rect><text x="718.0" y="1432.0" text-anchor="middle" font-size="10.5" font-weight="600" fill="#51586A">medium confidence</text></g>
<path d="M 925.0 1389.0 L 925.0 1416.0 Q 925.0 1428.0 913.0 1428.0 L 799.0 1428.0 Q 787.0 1428.0 787.0 1440.0 L 787.0 1467.0" fill="none" stroke="#9AA3AE" stroke-width="1.75" marker-end="url(#arrow)"></path>
<g><rect x="800.0" y="1417.0" width="112.0" height="20" rx="9" fill="#FFFFFF" stroke="#D8DCE2" stroke-width="1"></rect><text x="856.0" y="1432.0" text-anchor="middle" font-size="10.5" font-weight="600" fill="#51586A">high confidence</text></g>
<path d="M 925.0 1389.0 L 925.0 1416.0 Q 925.0 1428.0 937.0 1428.0 L 1327.0 1428.0 Q 1339.0 1428.0 1339.0 1440.0 L 1339.0 1467.0" fill="none" stroke="#9AA3AE" stroke-width="1.75" stroke-dasharray="5 4" marker-end="url(#arrow)"></path>
<g><rect x="1079.2" y="1417.0" width="105.6" height="20" rx="9" fill="#FFFFFF" stroke="#D8DCE2" stroke-width="1"></rect><text x="1132.0" y="1432.0" text-anchor="middle" font-size="10.5" font-weight="600" fill="#51586A">low confidence</text></g>
<path d="M 912.0 1529.5 L 938.0 1529.5" fill="none" stroke="#9AA3AE" stroke-width="1.75" marker-end="url(#arrow)"></path>
<path d="M 511.0 1592.0 L 511.0 1619.0 Q 511.0 1631.0 523.0 1631.0 L 637.0 1631.0 Q 649.0 1631.0 649.0 1643.0 L 649.0 1670.0" fill="none" stroke="#9AA3AE" stroke-width="1.75" stroke-dasharray="5 4" marker-end="url(#arrow)"></path>
<path d="M 787.0 1592.0 L 787.0 1619.0 Q 787.0 1631.0 799.0 1631.0 L 913.0 1631.0 Q 925.0 1631.0 925.0 1643.0 L 925.0 1670.0" fill="none" stroke="#9AA3AE" stroke-width="1.75" stroke-dasharray="5 4" marker-end="url(#arrow)"></path>
<path d="M 1063.0 1592.0 L 1063.0 1619.0 Q 1063.0 1631.0 1075.0 1631.0 L 1189.0 1631.0 Q 1201.0 1631.0 1201.0 1643.0 L 1201.0 1670.0" fill="none" stroke="#9AA3AE" stroke-width="1.75" stroke-dasharray="5 4" marker-end="url(#arrow)"></path>
<path d="M 649.0 1795.0 L 649.0 1873.0" fill="none" stroke="#9AA3AE" stroke-width="1.75" stroke-dasharray="5 4" marker-end="url(#arrow)"></path>
<path d="M 925.0 1795.0 L 925.0 1873.0" fill="none" stroke="#9AA3AE" stroke-width="1.75" stroke-dasharray="5 4" marker-end="url(#arrow)"></path>
<path d="M 1201.0 1795.0 L 1201.0 1873.0" fill="none" stroke="#9AA3AE" stroke-width="1.75" stroke-dasharray="5 4" marker-end="url(#arrow)"></path>
<path d="M 649.0 1998.0 L 649.0 2076.0" fill="none" stroke="#9AA3AE" stroke-width="1.75" stroke-dasharray="5 4" marker-end="url(#arrow)"></path>
<path d="M 774.0 2138.5 L 800.0 2138.5" fill="none" stroke="#9AA3AE" stroke-width="1.75" marker-end="url(#arrow)"></path>
<path d="M 1050.0 2138.5 L 1076.0 2138.5" fill="none" stroke="#9AA3AE" stroke-width="1.75" marker-end="url(#arrow)"></path>
<path d="M 1201.0 2201.0 L 1201.0 1517.5 Q 1201.0 1529.5 1213.0 1529.5 L 1327.0 1529.5 Q 1339.0 1529.5 1339.0 1541.5 L 1339.0 858.0" fill="none" stroke="#9AA3AE" stroke-width="1.75" stroke-dasharray="5 4" marker-end="url(#arrow)"></path>
<path d="M 1201.0 2201.0 L 1201.0 1517.5 Q 1201.0 1529.5 1189.0 1529.5 L 799.0 1529.5 Q 787.0 1529.5 787.0 1541.5 L 787.0 858.0" fill="none" stroke="#9AA3AE" stroke-width="1.75" stroke-dasharray="5 4" marker-end="url(#arrow)"></path>
<line x1="300" y1="46.0" x2="300" y2="2201.0" stroke="#D64545" stroke-width="2.5"></line>
<line x1="19.0" y1="52.0" x2="19.0" y2="2195.0" stroke="#1A1A1A" stroke-width="1.5"></line>
<polygon points="14.0,61.0 24.0,61.0 19.0,52.0" fill="#1A1A1A"></polygon>
<polygon points="14.0,2186.0 24.0,2186.0 19.0,2195.0" fill="#1A1A1A"></polygon>
<text x="19.0" y="1123.5" text-anchor="middle" font-size="11" font-weight="700" fill="#1A1A1A" letter-spacing="0.5" transform="rotate(-90 19.0 1123.5)">SYSTEM ORCHESTRATION &amp; KNOWLEDGE FLOW</text>
<rect x="40" y="82.5" width="42" height="52" fill="#FFFFFF" stroke="#1A1A1A" stroke-width="2"></rect>
<text x="61.0" y="114.5" text-anchor="middle" font-size="17" font-weight="700" fill="#1A1A1A">L1</text>
<rect x="82" y="82.5" width="196" height="52" fill="#FFFFFF" stroke="#1A1A1A" stroke-width="2"></rect>
<text x="180.0" y="102.5" text-anchor="middle" font-size="11.5" font-weight="700" fill="#1A1A1A">Foundational Data &amp;</text>
<text x="180.0" y="117.5" text-anchor="middle" font-size="11.5" font-weight="700" fill="#1A1A1A">Infrastructure</text>
<line x1="278" y1="108.5" x2="300" y2="108.5" stroke="#D64545" stroke-width="1.5" stroke-dasharray="3 3"></line>
<circle cx="300" cy="108.5" r="4" fill="#D64545"></circle>
<rect x="40" y="285.5" width="42" height="52" fill="#FFFFFF" stroke="#1A1A1A" stroke-width="2"></rect>
<text x="61.0" y="317.5" text-anchor="middle" font-size="17" font-weight="700" fill="#1A1A1A">L2</text>
<rect x="82" y="285.5" width="196" height="52" fill="#FFFFFF" stroke="#1A1A1A" stroke-width="2"></rect>
<text x="180.0" y="305.5" text-anchor="middle" font-size="11.5" font-weight="700" fill="#1A1A1A">Agent Intelligence &amp;</text>
<text x="180.0" y="320.5" text-anchor="middle" font-size="11.5" font-weight="700" fill="#1A1A1A">Models</text>
<line x1="278" y1="311.5" x2="300" y2="311.5" stroke="#D64545" stroke-width="1.5" stroke-dasharray="3 3"></line>
<circle cx="300" cy="311.5" r="4" fill="#D64545"></circle>
<rect x="40" y="488.0" width="42" height="53" fill="#FFFFFF" stroke="#1A1A1A" stroke-width="2"></rect>
<text x="61.0" y="520.5" text-anchor="middle" font-size="17" font-weight="700" fill="#1A1A1A">L3</text>
<rect x="82" y="488.0" width="196" height="53" fill="#FFFFFF" stroke="#1A1A1A" stroke-width="2"></rect>
<text x="180.0" y="508.0" text-anchor="middle" font-size="11.5" font-weight="700" fill="#1A1A1A">Agentic Core</text>
<text x="180.0" y="526.0" text-anchor="middle" font-size="10" fill="#5A6270">(Orchestration &amp; Reasoning)</text>
<line x1="278" y1="514.5" x2="300" y2="514.5" stroke="#D64545" stroke-width="1.5" stroke-dasharray="3 3"></line>
<circle cx="300" cy="514.5" r="4" fill="#D64545"></circle>
<rect x="40" y="1089.5" width="42" height="68" fill="#FFFFFF" stroke="#1A1A1A" stroke-width="2"></rect>
<text x="61.0" y="1129.5" text-anchor="middle" font-size="17" font-weight="700" fill="#1A1A1A">L4</text>
<rect x="82" y="1089.5" width="196" height="68" fill="#FFFFFF" stroke="#1A1A1A" stroke-width="2"></rect>
<text x="180.0" y="1109.5" text-anchor="middle" font-size="11.5" font-weight="700" fill="#1A1A1A">Decisions Engineering &amp;</text>
<text x="180.0" y="1124.5" text-anchor="middle" font-size="11.5" font-weight="700" fill="#1A1A1A">SECI Framework</text>
<text x="180.0" y="1142.5" text-anchor="middle" font-size="10" fill="#5A6270">(Governance &amp; Logic)</text>
<line x1="278" y1="1123.5" x2="300" y2="1123.5" stroke="#D64545" stroke-width="1.5" stroke-dasharray="3 3"></line>
<circle cx="300" cy="1123.5" r="4" fill="#D64545"></circle>
<rect x="40" y="1503.0" width="42" height="53" fill="#FFFFFF" stroke="#1A1A1A" stroke-width="2"></rect>
<text x="61.0" y="1535.5" text-anchor="middle" font-size="17" font-weight="700" fill="#1A1A1A">L5</text>
<rect x="82" y="1503.0" width="196" height="53" fill="#FFFFFF" stroke="#1A1A1A" stroke-width="2"></rect>
<text x="180.0" y="1523.0" text-anchor="middle" font-size="11.5" font-weight="700" fill="#1A1A1A">Execution &amp; Interaction</text>
<text x="180.0" y="1541.0" text-anchor="middle" font-size="10" fill="#5A6270">(Action Layer)</text>
<line x1="278" y1="1529.5" x2="300" y2="1529.5" stroke="#D64545" stroke-width="1.5" stroke-dasharray="3 3"></line>
<circle cx="300" cy="1529.5" r="4" fill="#D64545"></circle>
<rect x="40" y="1706.0" width="42" height="53" fill="#FFFFFF" stroke="#1A1A1A" stroke-width="2"></rect>
<text x="61.0" y="1738.5" text-anchor="middle" font-size="17" font-weight="700" fill="#1A1A1A">L6</text>
<rect x="82" y="1706.0" width="196" height="53" fill="#FFFFFF" stroke="#1A1A1A" stroke-width="2"></rect>
<text x="180.0" y="1726.0" text-anchor="middle" font-size="11.5" font-weight="700" fill="#1A1A1A">End-to-End Observability</text>
<text x="180.0" y="1744.0" text-anchor="middle" font-size="10" fill="#5A6270">(The Nervous System)</text>
<line x1="278" y1="1732.5" x2="300" y2="1732.5" stroke="#D64545" stroke-width="1.5" stroke-dasharray="3 3"></line>
<circle cx="300" cy="1732.5" r="4" fill="#D64545"></circle>
<rect x="40" y="1909.0" width="42" height="53" fill="#FFFFFF" stroke="#1A1A1A" stroke-width="2"></rect>
<text x="61.0" y="1941.5" text-anchor="middle" font-size="17" font-weight="700" fill="#1A1A1A">L7</text>
<rect x="82" y="1909.0" width="196" height="53" fill="#FFFFFF" stroke="#1A1A1A" stroke-width="2"></rect>
<text x="180.0" y="1929.0" text-anchor="middle" font-size="11.5" font-weight="700" fill="#1A1A1A">Leadership Dashboard Layer</text>
<text x="180.0" y="1947.0" text-anchor="middle" font-size="10" fill="#5A6270">(Accountability &amp; Outcomes)</text>
<line x1="278" y1="1935.5" x2="300" y2="1935.5" stroke="#D64545" stroke-width="1.5" stroke-dasharray="3 3"></line>
<circle cx="300" cy="1935.5" r="4" fill="#D64545"></circle>
<rect x="40" y="2104.5" width="42" height="68" fill="#FFFFFF" stroke="#1A1A1A" stroke-width="2"></rect>
<text x="61.0" y="2144.5" text-anchor="middle" font-size="17" font-weight="700" fill="#1A1A1A">L8</text>
<rect x="82" y="2104.5" width="196" height="68" fill="#FFFFFF" stroke="#1A1A1A" stroke-width="2"></rect>
<text x="180.0" y="2124.5" text-anchor="middle" font-size="11.5" font-weight="700" fill="#1A1A1A">Feedback &amp; Reinforcement</text>
<text x="180.0" y="2139.5" text-anchor="middle" font-size="11.5" font-weight="700" fill="#1A1A1A">Loops</text>
<text x="180.0" y="2157.5" text-anchor="middle" font-size="10" fill="#5A6270">(Self-Healing)</text>
<line x1="278" y1="2138.5" x2="300" y2="2138.5" stroke="#D64545" stroke-width="1.5" stroke-dasharray="3 3"></line>
<circle cx="300" cy="2138.5" r="4" fill="#D64545"></circle>
<g filter="url(#cardshadow)">
<rect x="524.0" y="46.0" width="250" height="125" rx="16" fill="#F2EEE3" stroke="#C7BC9E" stroke-width="1.5" stroke-dasharray="6 4"></rect>
</g>
<text x="649.0" y="95.6" text-anchor="middle" font-size="15.5" font-weight="600" fill="#4A4432">Government ID / Document</text>
<text x="649.0" y="115.6" text-anchor="middle" font-size="15.5" font-weight="600" fill="#4A4432">Scan</text>
<text x="649.0" y="132.2" text-anchor="middle" font-size="12.5" fill="#8C8365">External Data Store</text>
<g filter="url(#cardshadow)">
<rect x="800.0" y="46.0" width="250" height="125" rx="16" fill="#F2EEE3" stroke="#C7BC9E" stroke-width="1.5" stroke-dasharray="6 4"></rect>
</g>
<text x="925.0" y="105.6" text-anchor="middle" font-size="15.5" font-weight="600" fill="#4A4432">Credit Bureau Feed</text>
<text x="925.0" y="122.2" text-anchor="middle" font-size="12.5" fill="#8C8365">External Data Store</text>
<g filter="url(#cardshadow)">
<rect x="1076.0" y="46.0" width="250" height="125" rx="16" fill="#F2EEE3" stroke="#C7BC9E" stroke-width="1.5"></rect>
</g>
<text x="1201.0" y="105.6" text-anchor="middle" font-size="15.5" font-weight="600" fill="#4A4432">Coverage Map API</text>
<text x="1201.0" y="122.2" text-anchor="middle" font-size="12.5" fill="#8C8365">Internal Data Store</text>
<g filter="url(#cardshadow)">
<rect x="524.0" y="249.0" width="250" height="125" rx="16" fill="#DBF2E7" stroke="#4FAE83" stroke-width="1.5"></rect>
</g>
<text x="649.0" y="308.6" text-anchor="middle" font-size="15.5" font-weight="600" fill="#1B5E3D">AI Gateway</text>
<text x="649.0" y="325.2" text-anchor="middle" font-size="12.5" fill="#3D8261">L2 · The Brain</text>
<g filter="url(#cardshadow)">
<rect x="800.0" y="249.0" width="250" height="125" rx="16" fill="#DBF2E7" stroke="#4FAE83" stroke-width="1.5"></rect>
</g>
<text x="925.0" y="298.6" text-anchor="middle" font-size="15.5" font-weight="600" fill="#1B5E3D">LLM Reasoning Core</text>
<text x="925.0" y="318.6" text-anchor="middle" font-size="15.5" font-weight="600" fill="#1B5E3D">(Claude)</text>
<text x="925.0" y="335.2" text-anchor="middle" font-size="12.5" fill="#3D8261">L2 · The Brain</text>
<g filter="url(#cardshadow)">
<rect x="1076.0" y="249.0" width="250" height="125" rx="16" fill="#DBF2E7" stroke="#4FAE83" stroke-width="1.5"></rect>
</g>
<text x="1201.0" y="298.6" text-anchor="middle" font-size="15.5" font-weight="600" fill="#1B5E3D">Applicant Risk Knowledge</text>
<text x="1201.0" y="318.6" text-anchor="middle" font-size="15.5" font-weight="600" fill="#1B5E3D">Graph</text>
<text x="1201.0" y="335.2" text-anchor="middle" font-size="12.5" fill="#3D8261">L2 · The Brain</text>
<g filter="url(#cardshadow)">
<rect x="800.0" y="452.0" width="250" height="125" rx="16" fill="#DCEBFB" stroke="#5B93C9" stroke-width="1.5"></rect>
</g>
<text x="925.0" y="501.6" text-anchor="middle" font-size="15.5" font-weight="600" fill="#1C4A73">Onboarding Decision</text>
<text x="925.0" y="521.6" text-anchor="middle" font-size="15.5" font-weight="600" fill="#1C4A73">Orchestrator Agent</text>
<text x="925.0" y="538.2" text-anchor="middle" font-size="12.5" fill="#3E6D93">L3 · Orchestration</text>
<g filter="url(#cardshadow)">
<rect x="386.0" y="655.0" width="250" height="125" rx="16" fill="#DBF2E7" stroke="#4FAE83" stroke-width="1.5"></rect>
</g>
<text x="511.0" y="704.6" text-anchor="middle" font-size="15.5" font-weight="600" fill="#1B5E3D">Identity Verification</text>
<text x="511.0" y="724.6" text-anchor="middle" font-size="15.5" font-weight="600" fill="#1B5E3D">(KYC) Agent</text>
<text x="511.0" y="741.2" text-anchor="middle" font-size="12.5" fill="#3D8261">L3 · Specialist</text>
<g filter="url(#cardshadow)">
<rect x="662.0" y="655.0" width="250" height="125" rx="16" fill="#DBF2E7" stroke="#4FAE83" stroke-width="1.5"></rect>
</g>
<text x="787.0" y="704.6" text-anchor="middle" font-size="15.5" font-weight="600" fill="#1B5E3D">Credit Risk Assessment</text>
<text x="787.0" y="724.6" text-anchor="middle" font-size="15.5" font-weight="600" fill="#1B5E3D">Agent</text>
<text x="787.0" y="741.2" text-anchor="middle" font-size="12.5" fill="#3D8261">L3 · Specialist</text>
<g filter="url(#cardshadow)">
<rect x="938.0" y="655.0" width="250" height="125" rx="16" fill="#DBF2E7" stroke="#4FAE83" stroke-width="1.5"></rect>
</g>
<text x="1063.0" y="704.6" text-anchor="middle" font-size="15.5" font-weight="600" fill="#1B5E3D">Device Financing Fraud</text>
<text x="1063.0" y="724.6" text-anchor="middle" font-size="15.5" font-weight="600" fill="#1B5E3D">Agent</text>
<text x="1063.0" y="741.2" text-anchor="middle" font-size="12.5" fill="#3D8261">L3 · Specialist</text>
<g filter="url(#cardshadow)">
<rect x="1214.0" y="655.0" width="250" height="125" rx="16" fill="#DBF2E7" stroke="#4FAE83" stroke-width="1.5"></rect>
</g>
<text x="1339.0" y="704.6" text-anchor="middle" font-size="15.5" font-weight="600" fill="#1B5E3D">Address/Coverage</text>
<text x="1339.0" y="724.6" text-anchor="middle" font-size="15.5" font-weight="600" fill="#1B5E3D">Validation Agent</text>
<text x="1339.0" y="741.2" text-anchor="middle" font-size="12.5" fill="#3D8261">L3 · Specialist</text>
<g filter="url(#cardshadow)">
<rect x="386.0" y="858.0" width="250" height="125" rx="16" fill="#E4F0F6" stroke="#5FA3C0" stroke-width="1.5"></rect>
</g>
<text x="511.0" y="917.6" text-anchor="middle" font-size="15.5" font-weight="600" fill="#1D4E5F">Working Memory</text>
<text x="511.0" y="934.2" text-anchor="middle" font-size="12.5" fill="#3E7B93">Short-Term · current session</text>
<g filter="url(#cardshadow)">
<rect x="662.0" y="858.0" width="250" height="125" rx="16" fill="#E4F0F6" stroke="#5FA3C0" stroke-width="1.5"></rect>
</g>
<text x="787.0" y="917.6" text-anchor="middle" font-size="15.5" font-weight="600" fill="#1D4E5F">Episodic Memory</text>
<text x="787.0" y="934.2" text-anchor="middle" font-size="12.5" fill="#3E7B93">Long-Term · past cases</text>
<g filter="url(#cardshadow)">
<rect x="938.0" y="858.0" width="250" height="125" rx="16" fill="#E4F0F6" stroke="#5FA3C0" stroke-width="1.5"></rect>
</g>
<text x="1063.0" y="917.6" text-anchor="middle" font-size="15.5" font-weight="600" fill="#1D4E5F">Semantic Memory</text>
<text x="1063.0" y="934.2" text-anchor="middle" font-size="12.5" fill="#3E7B93">Long-Term · domain knowledge</text>
<g filter="url(#cardshadow)">
<rect x="1214.0" y="858.0" width="250" height="125" rx="16" fill="#E4F0F6" stroke="#5FA3C0" stroke-width="1.5"></rect>
</g>
<text x="1339.0" y="917.6" text-anchor="middle" font-size="15.5" font-weight="600" fill="#1D4E5F">Policy Memory</text>
<text x="1339.0" y="934.2" text-anchor="middle" font-size="12.5" fill="#3E7B93">Long-Term · governance rules</text>
<g filter="url(#cardshadow)">
<rect x="524.0" y="1061.0" width="250" height="125" rx="16" fill="#DCEBFB" stroke="#5B93C9" stroke-width="1.5"></rect>
</g>
<text x="649.0" y="1110.6" text-anchor="middle" font-size="15.5" font-weight="600" fill="#1C4A73">Per-Agent</text>
<text x="649.0" y="1130.6" text-anchor="middle" font-size="15.5" font-weight="600" fill="#1C4A73">Timeout/Fallback Policy</text>
<text x="649.0" y="1147.2" text-anchor="middle" font-size="12.5" fill="#3E6D93">L4 · Governance</text>
<g filter="url(#cardshadow)">
<rect x="800.0" y="1061.0" width="250" height="125" rx="16" fill="#DCEBFB" stroke="#5B93C9" stroke-width="1.5"></rect>
</g>
<text x="925.0" y="1110.6" text-anchor="middle" font-size="15.5" font-weight="600" fill="#1C4A73">Separated Fraud/Credit</text>
<text x="925.0" y="1130.6" text-anchor="middle" font-size="15.5" font-weight="600" fill="#1C4A73">Threshold Guardrail</text>
<text x="925.0" y="1147.2" text-anchor="middle" font-size="12.5" fill="#3E6D93">L4 · Governance</text>
<g filter="url(#cardshadow)">
<rect x="1076.0" y="1061.0" width="250" height="125" rx="16" fill="#DCEBFB" stroke="#5B93C9" stroke-width="1.5"></rect>
</g>
<text x="1201.0" y="1120.6" text-anchor="middle" font-size="15.5" font-weight="600" fill="#1C4A73">Reason-Code Rule Engine</text>
<text x="1201.0" y="1137.2" text-anchor="middle" font-size="12.5" fill="#3E6D93">L4 · Governance</text>
<g filter="url(#cardshadow)">
<rect x="800.0" y="1264.0" width="250" height="125" rx="16" fill="#DCEBFB" stroke="#5B93C9" stroke-width="1.5"></rect>
</g>
<text x="925.0" y="1313.6" text-anchor="middle" font-size="15.5" font-weight="600" fill="#1C4A73">Activation Confidence</text>
<text x="925.0" y="1333.6" text-anchor="middle" font-size="15.5" font-weight="600" fill="#1C4A73">Gate</text>
<text x="925.0" y="1350.2" text-anchor="middle" font-size="12.5" fill="#3E6D93">Conditional routing</text>
<g filter="url(#cardshadow)">
<rect x="386.0" y="1467.0" width="250" height="125" rx="16" fill="#FBE1E6" stroke="#D9748C" stroke-width="1.5"></rect>
</g>
<text x="511.0" y="1516.6" text-anchor="middle" font-size="15.5" font-weight="600" fill="#7A2B3F">Manual Review</text>
<text x="511.0" y="1536.6" text-anchor="middle" font-size="15.5" font-weight="600" fill="#7A2B3F">(Borderline Scores)</text>
<text x="511.0" y="1553.2" text-anchor="middle" font-size="12.5" fill="#9C4F60">Human-in-the-loop</text>
<g filter="url(#cardshadow)">
<rect x="662.0" y="1467.0" width="250" height="125" rx="16" fill="#FBE8CE" stroke="#D89A3F" stroke-width="1.5"></rect>
</g>
<text x="787.0" y="1506.6" text-anchor="middle" font-size="15.5" font-weight="600" fill="#7A4E12">Line</text>
<text x="787.0" y="1526.6" text-anchor="middle" font-size="15.5" font-weight="600" fill="#7A4E12">Activation/Provisioning</text>
<text x="787.0" y="1546.6" text-anchor="middle" font-size="15.5" font-weight="600" fill="#7A4E12">System</text>
<text x="787.0" y="1563.2" text-anchor="middle" font-size="12.5" fill="#9C6B22">L5 · Tool Registry</text>
<g filter="url(#cardshadow)">
<rect x="938.0" y="1467.0" width="250" height="125" rx="16" fill="#FBE8CE" stroke="#D89A3F" stroke-width="1.5"></rect>
</g>
<text x="1063.0" y="1516.6" text-anchor="middle" font-size="15.5" font-weight="600" fill="#7A4E12">Device Financing</text>
<text x="1063.0" y="1536.6" text-anchor="middle" font-size="15.5" font-weight="600" fill="#7A4E12">Approval</text>
<text x="1063.0" y="1553.2" text-anchor="middle" font-size="12.5" fill="#9C6B22">L5 · Tool Registry</text>
<g filter="url(#cardshadow)">
<rect x="1214.0" y="1467.0" width="250" height="125" rx="16" fill="#EAE1F8" stroke="#9575CD" stroke-width="1.5"></rect>
</g>
<text x="1339.0" y="1516.6" text-anchor="middle" font-size="15.5" font-weight="600" fill="#4A2E7A">Rejection Reason-Code</text>
<text x="1339.0" y="1536.6" text-anchor="middle" font-size="15.5" font-weight="600" fill="#4A2E7A">Queue</text>
<text x="1339.0" y="1553.2" text-anchor="middle" font-size="12.5" fill="#6B4A9E">Conditional: policy breach</text>
<g filter="url(#cardshadow)">
<rect x="524.0" y="1670.0" width="250" height="125" rx="16" fill="#EAE1F8" stroke="#9575CD" stroke-width="1.5"></rect>
</g>
<text x="649.0" y="1729.6" text-anchor="middle" font-size="15.5" font-weight="600" fill="#4A2E7A">Timeout/Fallback Monitor</text>
<text x="649.0" y="1746.2" text-anchor="middle" font-size="12.5" fill="#6B4A9E">L6 · Nervous System</text>
<g filter="url(#cardshadow)">
<rect x="800.0" y="1670.0" width="250" height="125" rx="16" fill="#EAE1F8" stroke="#9575CD" stroke-width="1.5"></rect>
</g>
<text x="925.0" y="1719.6" text-anchor="middle" font-size="15.5" font-weight="600" fill="#4A2E7A">Fair-Lending Bias</text>
<text x="925.0" y="1739.6" text-anchor="middle" font-size="15.5" font-weight="600" fill="#4A2E7A">Watchdog</text>
<text x="925.0" y="1756.2" text-anchor="middle" font-size="12.5" fill="#6B4A9E">L6 · Nervous System</text>
<g filter="url(#cardshadow)">
<rect x="1076.0" y="1670.0" width="250" height="125" rx="16" fill="#EAE1F8" stroke="#9575CD" stroke-width="1.5"></rect>
</g>
<text x="1201.0" y="1729.6" text-anchor="middle" font-size="15.5" font-weight="600" fill="#4A2E7A">Activation Auditor</text>
<text x="1201.0" y="1746.2" text-anchor="middle" font-size="12.5" fill="#6B4A9E">L6 · Nervous System</text>
<g filter="url(#cardshadow)">
<rect x="524.0" y="1873.0" width="250" height="125" rx="16" fill="#FBE1E6" stroke="#D9748C" stroke-width="1.5"></rect>
</g>
<text x="649.0" y="1922.6" text-anchor="middle" font-size="15.5" font-weight="600" fill="#7A2B3F">Activation Conversion</text>
<text x="649.0" y="1942.6" text-anchor="middle" font-size="15.5" font-weight="600" fill="#7A2B3F">Dashboard</text>
<text x="649.0" y="1959.2" text-anchor="middle" font-size="12.5" fill="#9C4F60">L7 · Leadership Portal</text>
<g filter="url(#cardshadow)">
<rect x="800.0" y="1873.0" width="250" height="125" rx="16" fill="#FBE1E6" stroke="#D9748C" stroke-width="1.5"></rect>
</g>
<text x="925.0" y="1922.6" text-anchor="middle" font-size="15.5" font-weight="600" fill="#7A2B3F">Fair-Lending Compliance</text>
<text x="925.0" y="1942.6" text-anchor="middle" font-size="15.5" font-weight="600" fill="#7A2B3F">Scorecard</text>
<text x="925.0" y="1959.2" text-anchor="middle" font-size="12.5" fill="#9C4F60">L7 · Leadership Portal</text>
<g filter="url(#cardshadow)">
<rect x="1076.0" y="1873.0" width="250" height="125" rx="16" fill="#FBE1E6" stroke="#D9748C" stroke-width="1.5"></rect>
</g>
<text x="1201.0" y="1932.6" text-anchor="middle" font-size="15.5" font-weight="600" fill="#7A2B3F">Fraud-Caught View</text>
<text x="1201.0" y="1949.2" text-anchor="middle" font-size="12.5" fill="#9C4F60">L7 · Leadership Portal</text>
<g filter="url(#cardshadow)">
<rect x="524.0" y="2076.0" width="250" height="125" rx="16" fill="#EAE1F8" stroke="#9575CD" stroke-width="1.5"></rect>
</g>
<text x="649.0" y="2125.6" text-anchor="middle" font-size="15.5" font-weight="600" fill="#4A2E7A">Decision Accuracy</text>
<text x="649.0" y="2145.6" text-anchor="middle" font-size="15.5" font-weight="600" fill="#4A2E7A">Tracker</text>
<text x="649.0" y="2162.2" text-anchor="middle" font-size="12.5" fill="#6B4A9E">L8 · Self-Healing</text>
<g filter="url(#cardshadow)">
<rect x="800.0" y="2076.0" width="250" height="125" rx="16" fill="#EAE1F8" stroke="#9575CD" stroke-width="1.5"></rect>
</g>
<text x="925.0" y="2125.6" text-anchor="middle" font-size="15.5" font-weight="600" fill="#4A2E7A">Threshold Retraining</text>
<text x="925.0" y="2145.6" text-anchor="middle" font-size="15.5" font-weight="600" fill="#4A2E7A">Trigger</text>
<text x="925.0" y="2162.2" text-anchor="middle" font-size="12.5" fill="#6B4A9E">L8 · Self-Healing</text>
<g filter="url(#cardshadow)">
<rect x="1076.0" y="2076.0" width="250" height="125" rx="16" fill="#EAE1F8" stroke="#9575CD" stroke-width="1.5"></rect>
</g>
<text x="1201.0" y="2135.6" text-anchor="middle" font-size="15.5" font-weight="600" fill="#4A2E7A">Policy Memory Updater</text>
<text x="1201.0" y="2152.2" text-anchor="middle" font-size="12.5" fill="#6B4A9E">L8 · Self-Healing</text>
</svg>