<svg xmlns="http://www.w3.org/2000/svg" viewBox="0 0 1170 1029" font-family="'Inter','IBM Plex Sans',-apple-system,sans-serif">
<defs>
<marker id="arrow" viewBox="0 0 10 10" refX="8" refY="5" markerWidth="7" markerHeight="7" orient="auto-start-reverse">
<path d="M0,0 L10,5 L0,10 z" fill="#a19786"></path>
</marker>
<filter id="cardshadow" x="-20%" y="-20%" width="140%" height="140%">
<feDropShadow dx="0" dy="1.5" stdDeviation="2.5" flood-color="#1a1a1a" flood-opacity="0.08"></feDropShadow>
</filter>
</defs>
<path d="M 585.0 171.0 L 585.0 249.0" fill="none" stroke="#a19786" stroke-width="1.75" marker-end="url(#arrow)"></path>
<path d="M 585.0 374.0 L 585.0 401.0 Q 585.0 413.0 573.0 413.0 L 183.0 413.0 Q 171.0 413.0 171.0 425.0 L 171.0 452.0" fill="none" stroke="#a19786" stroke-width="1.75" marker-end="url(#arrow)"></path>
<path d="M 585.0 374.0 L 585.0 401.0 Q 585.0 413.0 573.0 413.0 L 459.0 413.0 Q 447.0 413.0 447.0 425.0 L 447.0 452.0" fill="none" stroke="#a19786" stroke-width="1.75" marker-end="url(#arrow)"></path>
<path d="M 585.0 374.0 L 585.0 401.0 Q 585.0 413.0 597.0 413.0 L 711.0 413.0 Q 723.0 413.0 723.0 425.0 L 723.0 452.0" fill="none" stroke="#a19786" stroke-width="1.75" marker-end="url(#arrow)"></path>
<path d="M 585.0 374.0 L 585.0 401.0 Q 585.0 413.0 597.0 413.0 L 987.0 413.0 Q 999.0 413.0 999.0 425.0 L 999.0 452.0" fill="none" stroke="#a19786" stroke-width="1.75" marker-end="url(#arrow)"></path>
<path d="M 585.0 171.0 L 585.0 655.0" fill="none" stroke="#a19786" stroke-width="1.75" marker-end="url(#arrow)"></path>
<path d="M 585.0 780.0 L 585.0 807.0 Q 585.0 819.0 573.0 819.0 L 321.0 819.0 Q 309.0 819.0 309.0 831.0 L 309.0 858.0" fill="none" stroke="#a19786" stroke-width="1.75" marker-end="url(#arrow)"></path>
<path d="M 585.0 780.0 L 585.0 858.0" fill="none" stroke="#a19786" stroke-width="1.75" marker-end="url(#arrow)"></path>
<path d="M 585.0 780.0 L 585.0 807.0 Q 585.0 819.0 597.0 819.0 L 849.0 819.0 Q 861.0 819.0 861.0 831.0 L 861.0 858.0" fill="none" stroke="#a19786" stroke-width="1.75" marker-end="url(#arrow)"></path>
<g filter="url(#cardshadow)">
<rect x="460.0" y="46.0" width="250" height="125" rx="16" fill="#DCEBFB" stroke="#5B93C9" stroke-width="1.5"></rect>
</g>
<text x="585.0" y="85.6" text-anchor="middle" font-size="15.5" font-weight="600" fill="#1C4A73">Network-wide RF</text>
<text x="585.0" y="105.6" text-anchor="middle" font-size="15.5" font-weight="600" fill="#1C4A73">Optimization</text>
<text x="585.0" y="125.6" text-anchor="middle" font-size="15.5" font-weight="600" fill="#1C4A73">Orchestrator</text>
<text x="585.0" y="142.2" text-anchor="middle" font-size="12.5" fill="#56633f">Orchestration</text>
<g filter="url(#cardshadow)">
<rect x="460.0" y="249.0" width="250" height="125" rx="16" fill="#DBF2E7" stroke="#4FAE83" stroke-width="1.5"></rect>
</g>
<text x="585.0" y="288.6" text-anchor="middle" font-size="15.5" font-weight="600" fill="#1B5E3D">Cluster Optimization</text>
<text x="585.0" y="308.6" text-anchor="middle" font-size="15.5" font-weight="600" fill="#1B5E3D">Manager Agent (per</text>
<text x="585.0" y="328.6" text-anchor="middle" font-size="15.5" font-weight="600" fill="#1B5E3D">geographic cluster)</text>
<text x="585.0" y="345.2" text-anchor="middle" font-size="12.5" fill="#3D8261">Domain Manager</text>
<g filter="url(#cardshadow)">
<rect x="46.0" y="452.0" width="250" height="125" rx="16" fill="#DBF2E7" stroke="#4FAE83" stroke-width="1.5"></rect>
</g>
<text x="171.0" y="501.6" text-anchor="middle" font-size="15.5" font-weight="600" fill="#1B5E3D">Coverage/Interference</text>
<text x="171.0" y="521.6" text-anchor="middle" font-size="15.5" font-weight="600" fill="#1B5E3D">Analysis Agent</text>
<text x="171.0" y="538.2" text-anchor="middle" font-size="12.5" fill="#3D8261">Specialist Agent</text>
<g filter="url(#cardshadow)">
<rect x="322.0" y="452.0" width="250" height="125" rx="16" fill="#DBF2E7" stroke="#4FAE83" stroke-width="1.5"></rect>
</g>
<text x="447.0" y="511.6" text-anchor="middle" font-size="15.5" font-weight="600" fill="#1B5E3D">Tilt/Power Tuning Agent</text>
<text x="447.0" y="528.2" text-anchor="middle" font-size="12.5" fill="#3D8261">Specialist Agent</text>
<g filter="url(#cardshadow)">
<rect x="598.0" y="452.0" width="250" height="125" rx="16" fill="#DBF2E7" stroke="#4FAE83" stroke-width="1.5"></rect>
</g>
<text x="723.0" y="501.6" text-anchor="middle" font-size="15.5" font-weight="600" fill="#1B5E3D">PCI/Neighbor-list</text>
<text x="723.0" y="521.6" text-anchor="middle" font-size="15.5" font-weight="600" fill="#1B5E3D">Optimization Agent</text>
<text x="723.0" y="538.2" text-anchor="middle" font-size="12.5" fill="#3D8261">Specialist Agent</text>
<g filter="url(#cardshadow)">
<rect x="874.0" y="452.0" width="250" height="125" rx="16" fill="#DBF2E7" stroke="#4FAE83" stroke-width="1.5"></rect>
</g>
<text x="999.0" y="511.6" text-anchor="middle" font-size="15.5" font-weight="600" fill="#1B5E3D">Handover Parameter Agent</text>
<text x="999.0" y="528.2" text-anchor="middle" font-size="12.5" fill="#3D8261">Specialist Agent</text>
<g filter="url(#cardshadow)">
<rect x="460.0" y="655.0" width="250" height="125" rx="16" fill="#DBF2E7" stroke="#4FAE83" stroke-width="1.5"></rect>
</g>
<text x="585.0" y="704.6" text-anchor="middle" font-size="15.5" font-weight="600" fill="#1B5E3D">Resolution / Reporting</text>
<text x="585.0" y="724.6" text-anchor="middle" font-size="15.5" font-weight="600" fill="#1B5E3D">Agent</text>
<text x="585.0" y="741.2" text-anchor="middle" font-size="12.5" fill="#3D8261">Consolidates output</text>
<g filter="url(#cardshadow)">
<rect x="184.0" y="858.0" width="250" height="125" rx="16" fill="#FBE8CE" stroke="#D89A3F" stroke-width="1.5"></rect>
</g>
<text x="309.0" y="907.6" text-anchor="middle" font-size="15.5" font-weight="600" fill="#7A4E12">Self-Organizing Network</text>
<text x="309.0" y="927.6" text-anchor="middle" font-size="15.5" font-weight="600" fill="#7A4E12">(SON) Parameter Push</text>
<text x="309.0" y="944.2" text-anchor="middle" font-size="12.5" fill="#9C6B22">Action &amp; Execution</text>
<g filter="url(#cardshadow)">
<rect x="460.0" y="858.0" width="250" height="125" rx="16" fill="#FBE8CE" stroke="#D89A3F" stroke-width="1.5"></rect>
</g>
<text x="585.0" y="907.6" text-anchor="middle" font-size="15.5" font-weight="600" fill="#7A4E12">RF Change Validation</text>
<text x="585.0" y="927.6" text-anchor="middle" font-size="15.5" font-weight="600" fill="#7A4E12">Report</text>
<text x="585.0" y="944.2" text-anchor="middle" font-size="12.5" fill="#9C6B22">Action &amp; Execution</text>
<g filter="url(#cardshadow)">
<rect x="736.0" y="858.0" width="250" height="125" rx="16" fill="#FBE8CE" stroke="#D89A3F" stroke-width="1.5"></rect>
</g>
<text x="861.0" y="907.6" text-anchor="middle" font-size="15.5" font-weight="600" fill="#7A4E12">Rollback on KPI</text>
<text x="861.0" y="927.6" text-anchor="middle" font-size="15.5" font-weight="600" fill="#7A4E12">Regression</text>
<text x="861.0" y="944.2" text-anchor="middle" font-size="12.5" fill="#9C6B22">Action &amp; Execution</text>
</svg>